<?xml version="1.0" encoding="utf-8" ?><svg xmlns="http://www.w3.org/2000/svg" xmlns:xlink="http://www.w3.org/1999/xlink" width="1024" height="703" viewBox="0 0 1024 703"><path fill="#00ADEF" transform="scale(5.01961 5.02143)" d="M28.2675 102.867C28.9335 86.3081 32.7131 72.3069 42.8036 58.7801C54.583 42.9937 72.1622 32.546 91.6588 29.7444C96.3557 29.0611 101.583 29.0284 106.302 29.2162C125.344 29.9737 136.583 36.7109 151.156 47.5789C153.116 49.1645 154.696 50.2324 155.962 52.4374C157.089 53.6817 158.413 55.064 159.484 56.3204C169.156 69.72 174.624 82.3229 175.6 99.0323C175.844 100.958 175.782 102.67 175.759 104.606C175.673 109.621 175.043 114.233 174.178 119.151C174.037 119.952 173.928 120.747 173.882 121.559L78.0761 121.669L46.5013 121.624C42.0828 121.616 34.584 121.859 30.5188 121.528C29.0776 115.209 29.0504 112.522 28.2692 106.404C28.2552 105.225 28.2546 104.046 28.2675 102.867ZM53.6044 71.6906C55.5385 71.5913 62.7116 71.7142 63.6447 70.1073C65.8232 66.3557 54.7675 62.042 51.9776 62.551C49.7854 63.0724 36.548 66.2126 43.6094 70.1661C45.8884 71.442 50.9269 71.7744 53.6044 71.6906ZM77.8661 50.4418C78.7002 49.8939 79.7408 49.3346 80.1961 48.4781C80.2247 46.8441 77.7779 46.9407 76.5349 46.9593C75.6599 46.9787 74.7852 47.0121 73.9112 47.0594C73.0417 47.2688 72.2757 47.3482 71.707 48.0298C71.1235 50.5152 76.0351 51.2197 77.8661 50.4418Z"/><path fill="#FEFEFE" transform="scale(5.01961 5.02143)" d="M92.373 63.2484C95.5608 62.1008 114.888 61.3703 119.078 61.8069C124.916 62.0002 131.484 62.3658 134.453 68.3819C136.899 72.0746 145.017 86.187 149.798 85.8104C150.708 85.5804 150.556 85.4688 151.318 85.7679C153.315 88.6847 151.405 98.8872 152.257 102.197L154.014 102.247C154.297 100.821 154.515 100.369 155.137 99.0411C155.639 100.712 154.547 101.084 155.006 102.745L156.747 103.259C157.143 102.369 157.887 100.336 157.989 99.4142C157.981 98.929 158.049 98.8363 158.263 98.4094C159.013 97.9748 160.537 98.2109 161.593 98.1977L161.747 98.2274C163.715 97.6677 165.424 97.7252 167.424 97.8002C168.412 97.6262 168.898 97.5472 169.657 98.3143C170.651 99.4607 171.534 100.478 172.446 101.698C173.505 100.678 174.335 99.8086 175.6 99.0323C175.844 100.958 175.782 102.67 175.759 104.606C175.673 109.621 175.043 114.233 174.178 119.151C174.037 119.952 173.928 120.747 173.882 121.559L78.0761 121.669L46.5013 121.624C42.0828 121.616 34.584 121.859 30.5188 121.528C29.0776 115.209 29.0504 112.522 28.2692 106.404C28.2552 105.225 28.2546 104.046 28.2675 102.867C30.3808 102.501 33.8768 101.325 35.5879 99.9923C36.1866 101.06 36.5514 101.81 37.657 102.444L37.348 102.747C37.4516 103.295 37.4704 103.39 37.7367 103.878C37.9145 103.896 38.0928 103.911 38.2714 103.92C39.4567 103.978 39.7255 103.65 40.5825 102.867C40.6747 102.482 40.9289 102.224 41.179 101.92C42.3689 102.129 43.3416 102.307 44.558 102.382L45.4047 102.193C45.1248 103.34 44.875 104.331 44.7126 105.508C46.1513 106.478 47.3368 107.69 48.9444 106.506L49.4278 105.215C49.7339 104.041 48.8018 103.033 49.7503 100.934C52.5616 101.031 54.1476 102.006 56.3337 99.8816C56.8356 99.6892 57.1637 99.2111 57.5121 98.7929C59.2388 99.1439 59.818 99.9352 60.9112 100.044C61.3773 100.794 61.5001 101.168 62.4763 101.313L62.5081 101.404C63.5833 103.994 65.8186 104.832 68.4004 106.155L68.8598 106.075L69.0405 105.467C69.8298 105.183 71.1935 105.675 72.0662 105.905C72.7834 103.591 73.1611 97.6814 73.2647 95.1894L71.1741 93.5861C72.4168 92.2542 73.6855 90.9468 74.9795 89.6647C75.3732 86.0566 75.6931 84.6278 77.492 81.4471C77.0868 80.092 76.8753 79.1723 76.6026 77.7894L75.818 75.0182C75.0077 74.2547 74.6352 73.1628 74.2475 72.1393C69.2966 59.0706 85.2054 64.1415 92.373 63.2484Z"/><path fill="#1A6E44" transform="scale(5.01961 5.02143)" d="M167.424 97.8002C168.412 97.6262 168.898 97.5472 169.657 98.3143C170.651 99.4607 171.534 100.478 172.446 101.698C173.505 100.678 174.335 99.8086 175.6 99.0323C175.844 100.958 175.782 102.67 175.759 104.606C175.673 109.621 175.043 114.233 174.178 119.151C174.037 119.952 173.928 120.747 173.882 121.559L78.0761 121.669L46.5013 121.624C42.0828 121.616 34.584 121.859 30.5188 121.528C29.0776 115.209 29.0504 112.522 28.2692 106.404C28.2552 105.225 28.2546 104.046 28.2675 102.867C30.3808 102.501 33.8768 101.325 35.5879 99.9923C36.1866 101.06 36.5514 101.81 37.657 102.444L37.348 102.747C37.4516 103.295 37.4704 103.39 37.7367 103.878C37.9145 103.896 38.0928 103.911 38.2714 103.92C39.4567 103.978 39.7255 103.65 40.5825 102.867C40.6747 102.482 40.9289 102.224 41.179 101.92C42.3689 102.129 43.3416 102.307 44.558 102.382L45.4047 102.193C45.1248 103.34 44.875 104.331 44.7126 105.508C46.1513 106.478 47.3368 107.69 48.9444 106.506L49.4278 105.215C49.7339 104.041 48.8018 103.033 49.7503 100.934C52.5616 101.031 54.1476 102.006 56.3337 99.8816C56.8356 99.6892 57.1637 99.2111 57.5121 98.7929C59.2388 99.1439 59.818 99.9352 60.9112 100.044C61.3773 100.794 61.5001 101.168 62.4763 101.313L62.5081 101.404C63.5833 103.994 65.8186 104.832 68.4004 106.155L68.8598 106.075L69.0405 105.467C69.8298 105.183 71.1935 105.675 72.0662 105.905C71.6915 106.832 71.1799 107.745 71.4271 108.749C71.9496 110.87 74.9877 111.004 76.8066 110.863L78.2973 111.084L79.5055 111.066C80.3306 111.045 80.9648 110.547 81.6757 110.107C83.5159 111.322 84.5193 110.652 86.3104 109.781C86.8002 109.286 86.8276 109.171 86.9543 108.476L87.1847 107.87L87.4352 108.027C87.7981 108.398 87.8608 108.421 88.3541 108.568C88.964 107.987 88.8337 107.774 89.0068 106.822C88.8273 105.481 89.1991 104.657 88.853 103.187L88.2697 102.843C88.9244 101.541 89.0325 100.318 89.2461 98.8905L89.9022 98.3945C91.2756 99.2093 92.2482 100.118 93.1833 101.422C93.2822 102.394 93.3431 102.783 93.1867 103.76L93.5475 104.458L94.0154 104.505L95.3078 104.578C95.8095 104.539 96.8055 104.491 97.2586 104.398L97.3424 104.347L98.6356 104.147L99.9607 104.112C101.454 104.086 108.011 103.906 109.087 104.193L109.38 103.959L109.957 104.076L110.302 103.971C110.964 103.987 112.787 103.993 113.347 104.101L113.564 103.903L114.241 104.049L114.572 103.927L115.742 103.432L115.869 103.153C117.447 102.414 118.672 101.266 120.388 100.693C120.556 101.402 120.753 102.528 120.334 103.185C120.183 105.118 119.92 107.652 119.987 109.534C121.286 109.595 123.43 109.773 124.643 109.556C124.96 109.181 124.958 109.295 125.005 108.868C125.132 108.033 125.285 107.432 125.903 106.916C126.733 107.348 126.695 107.691 127.221 108.651C128.021 109.68 130.239 110.169 131.753 111.041L132.052 110.951C132.135 108.804 130.448 106.949 130.382 105.316L131.342 104.919C132.491 104.515 132.495 104.306 133.508 104.536L133.858 104.881L134.198 105.022L134.526 105.748C135.776 106.266 137.134 106.868 138.424 107.238C138.791 106.384 138.836 105.618 138.945 104.7L138.616 101.938C139.295 100.244 139.705 99.4016 141.117 98.2445C141.472 98.7133 141.952 99.3051 142.217 99.8135C142.982 100.654 143.827 101.627 144.62 102.422L145.267 103.254C145.909 104.154 146.763 105.28 147.34 106.192L147.362 106.507C148.425 107.075 148.078 107.455 149.339 107.809L149.316 107.441L149.315 105.854C149.86 105.127 150.537 104.333 151.412 104.07L151.764 104.1C152.323 103.41 152.173 103.196 152.257 102.197L154.014 102.247C154.297 100.821 154.515 100.369 155.137 99.0411C155.639 100.712 154.547 101.084 155.006 102.745L156.747 103.259C157.143 102.369 157.887 100.336 157.989 99.4142C157.981 98.929 158.049 98.8363 158.263 98.4094C159.013 97.9748 160.537 98.2109 161.593 98.1977L161.747 98.2274C163.715 97.6677 165.424 97.7252 167.424 97.8002Z"/><path fill="#FEFEFE" transform="scale(5.01961 5.02143)" d="M167.424 97.8002C168.412 97.6262 168.898 97.5472 169.657 98.3143C170.651 99.4607 171.534 100.478 172.446 101.698C173.505 100.678 174.335 99.8086 175.6 99.0323C175.844 100.958 175.782 102.67 175.759 104.606C174.652 106.799 173.754 107.018 171.523 106.638C170.531 108.048 167.724 107.31 166.096 107.192C166.394 106.436 167.195 104.765 166.983 104.095C166.181 103.981 166.047 104.22 165.223 104.623C163.968 104.545 163.301 104.208 162.274 103.557L161.943 102.386L161.977 102.177C161.72 101.372 161.762 99.1755 161.747 98.2274C163.715 97.6677 165.424 97.7252 167.424 97.8002Z"/><path fill="#222121" transform="scale(5.01961 5.02143)" d="M167.424 97.8002C168.412 97.6262 168.898 97.5472 169.657 98.3143C170.651 99.4607 171.534 100.478 172.446 101.698C173.505 100.678 174.335 99.8086 175.6 99.0323C175.844 100.958 175.782 102.67 175.759 104.606C174.652 106.799 173.754 107.018 171.523 106.638L170.601 106.124C170.296 104.468 170.516 101.866 168.189 101.293C167.584 101.144 167.4 101.296 166.897 100.791C166.394 100.216 166.318 100.315 165.543 100.043C166.146 99.8359 167.091 98.3305 167.424 97.8002Z"/><path fill="#E4E5E6" transform="scale(5.01961 5.02143)" d="M167.424 97.8002C168.412 97.6262 168.898 97.5472 169.657 98.3143C168.392 99.9295 167.368 99.9917 166.897 100.791C166.394 100.216 166.318 100.315 165.543 100.043C166.146 99.8359 167.091 98.3305 167.424 97.8002Z"/><path fill="#222121" transform="scale(5.01961 5.02143)" d="M161.747 98.2274C163.715 97.6677 165.424 97.7252 167.424 97.8002C167.091 98.3305 166.146 99.8359 165.543 100.043L164.711 101.79C164.649 101.8 164.432 101.85 164.398 101.828L164.77 101.475C163.529 100.803 164.725 100.659 163.623 100.505C162.761 101.084 162.591 101.348 161.977 102.177C161.72 101.372 161.762 99.1755 161.747 98.2274Z"/><path fill="#D7DC4B" transform="scale(5.01961 5.02143)" d="M56.3337 99.8816C56.8356 99.6892 57.1637 99.2111 57.5121 98.7929C59.2388 99.1439 59.818 99.9352 60.9112 100.044C61.3773 100.794 61.5001 101.168 62.4763 101.313L62.5081 101.404C60.8897 102.453 61.0287 106.675 59.2669 106.965L58.9058 106.557L58.501 106.876L57.7985 106.727C56.7661 106.933 54.3561 106.243 53.7804 105.181L53.3425 105.148C52.9456 106.028 52.559 107.134 51.7995 107.681C50.4081 107.473 50.2701 106.015 49.4278 105.215C49.7339 104.041 48.8018 103.033 49.7503 100.934C52.5616 101.031 54.1476 102.006 56.3337 99.8816Z"/><path fill="#26541C" transform="scale(5.01961 5.02143)" d="M57.7985 106.727C57.5593 105.423 57.2713 101.897 58.3969 100.976C58.5389 101.395 58.4503 104.544 58.9058 106.557L58.501 106.876L57.7985 106.727Z"/><path fill="#26541C" transform="scale(5.01961 5.02143)" d="M56.0216 101.53C55.4468 102.706 54.6864 104.242 53.7804 105.181L53.3425 105.148C53.8118 103.58 54.8638 102.689 56.0216 101.53Z"/><path fill="#D7DC4B" transform="scale(5.01961 5.02143)" d="M99.9607 104.112C101.454 104.086 108.011 103.906 109.087 104.193C107.748 106.181 105.078 110.401 103.619 112.003C103.257 111.356 102.453 110.003 102.264 109.364L101.466 109.082C100.687 109.6 99.9028 110.197 98.9203 110.127C98.9191 108.252 98.7435 106.046 98.6356 104.147L99.9607 104.112Z"/><path fill="#3E6E25" transform="scale(5.01961 5.02143)" d="M101.466 109.082C101.354 108.037 100.964 105.974 101.248 105.144L101.622 105.182C101.945 105.699 102.537 108.345 102.413 108.879C102.373 109.043 102.323 109.205 102.264 109.364L101.466 109.082Z"/><path fill="#D7DC4B" transform="scale(5.01961 5.02143)" d="M35.5879 99.9923C36.1866 101.06 36.5514 101.81 37.657 102.444L37.348 102.747C37.4516 103.295 37.4704 103.39 37.7367 103.878C37.8675 104.709 38.0926 105.062 37.7054 105.63C35.4022 106.047 30.6484 106.413 28.2692 106.404C28.2552 105.225 28.2546 104.046 28.2675 102.867C30.3808 102.501 33.8768 101.325 35.5879 99.9923Z"/><path fill="#222121" transform="scale(5.01961 5.02143)" d="M157.989 99.4142C157.981 98.929 158.049 98.8363 158.263 98.4094C159.013 97.9748 160.537 98.2109 161.593 98.1977L161.747 98.2274C161.762 99.1755 161.72 101.372 161.977 102.177L161.943 102.386C161.05 103.4 161.2 105.543 161.181 106.928L160.912 107.828L160.398 108.079C159.727 107.621 159.913 107.861 159.596 107.121L159.303 107.388C157.842 105.926 157.324 105.238 156.747 103.259C157.143 102.369 157.887 100.336 157.989 99.4142Z"/><path fill="#E4E5E6" transform="scale(5.01961 5.02143)" d="M157.989 99.4142C157.981 98.929 158.049 98.8363 158.263 98.4094C159.013 97.9748 160.537 98.2109 161.593 98.1977L161.747 98.2274C161.762 99.1755 161.72 101.372 161.977 102.177L161.943 102.386C161.05 103.4 161.2 105.543 161.181 106.928L160.912 107.828L160.398 108.079C159.727 107.621 159.913 107.861 159.596 107.121C159.612 107.073 159.627 107.025 159.642 106.977C160.14 105.327 159.985 103.173 160.257 101.434C160.378 100.659 160.824 99.3431 160.506 98.7364L157.989 99.4142Z"/><path fill="#D7DC4B" transform="scale(5.01961 5.02143)" d="M141.117 98.2445C141.472 98.7133 141.952 99.3051 142.217 99.8135C142.982 100.654 143.827 101.627 144.62 102.422C144.004 103.844 144.036 104.969 143.403 106.03L143.091 106.136C142.499 105.67 142.436 105.276 142.214 104.568L141.295 103.913C141.18 104.085 140.676 104.794 140.657 104.945C140.458 106.471 141.432 109.42 139.492 109.93C139.008 109.418 138.999 105.689 138.945 104.7L138.616 101.938C139.295 100.244 139.705 99.4016 141.117 98.2445Z"/><path fill="#678E30" transform="scale(5.01961 5.02143)" d="M141.295 103.913C141.303 102.895 141.093 101.755 141.509 101.001L142.021 101.153C142.187 102.432 142.327 103.263 142.214 104.568L141.295 103.913Z"/><path fill="#D7DC4B" transform="scale(5.01961 5.02143)" d="M97.3424 104.347L98.6356 104.147C98.7435 106.046 98.9191 108.252 98.9203 110.127C98.667 110.324 98.158 110.698 97.9639 110.911C97.3324 110.976 97.157 110.88 96.5561 110.65C95.9243 110.023 95.894 108.894 95.7665 107.97L95.3413 109.083L95.0243 109.011C94.8842 109.2 94.6591 109.373 94.4772 109.532C93.8055 109.135 93.8543 108.789 93.5239 107.928C93.5508 106.796 93.0373 105.617 93.5475 104.458L94.0154 104.505L95.3078 104.578C95.8095 104.539 96.8055 104.491 97.2586 104.398L97.3424 104.347Z"/><path fill="#3E6E25" transform="scale(5.01961 5.02143)" d="M97.3424 104.347L98.6356 104.147C98.7435 106.046 98.9191 108.252 98.9203 110.127C98.667 110.324 98.158 110.698 97.9639 110.911C97.6414 109.22 98.0187 106.708 97.8309 104.716L97.2586 104.398L97.3424 104.347Z"/><path fill="#3E6E25" transform="scale(5.01961 5.02143)" d="M95.1023 106.666L95.6627 105.936C95.6949 106.403 95.8038 107.559 95.7665 107.97L95.3413 109.083L95.0243 109.011C95.0054 108.387 95.0776 107.325 95.1023 106.666Z"/><path fill="#D7DC4B" transform="scale(5.01961 5.02143)" d="M89.2461 98.8905L89.9022 98.3945C91.2756 99.2093 92.2482 100.118 93.1833 101.422C93.2822 102.394 93.3431 102.783 93.1867 103.76L92.7229 104.338C91.167 104.279 90.5718 102.736 89.4949 102.849C88.9321 103.968 89.4003 105.403 89.0068 106.822C88.8273 105.481 89.1991 104.657 88.853 103.187L88.2697 102.843C88.9244 101.541 89.0325 100.318 89.2461 98.8905Z"/><path fill="#D7DC4B" transform="scale(5.01961 5.02143)" d="M110.302 103.971C110.964 103.987 112.787 103.993 113.347 104.101C112.74 105.752 111.933 107.792 111.454 109.443C111.214 110.059 111.147 110.183 110.765 110.722L110.238 110.807C108.779 109.73 109.353 105.617 109.957 104.076L110.302 103.971Z"/><path fill="#D7DC4B" transform="scale(5.01961 5.02143)" d="M114.572 103.927C115.347 104.902 114.924 110.938 114.884 112.597C113.917 111.243 113.265 110.22 111.899 109.218L111.454 109.443C111.933 107.792 112.74 105.752 113.347 104.101L113.564 103.903L114.241 104.049L114.572 103.927Z"/><path fill="#3E6E25" transform="scale(5.01961 5.02143)" d="M113.564 103.903L114.241 104.049C113.498 105.714 112.702 107.602 111.899 109.218L111.454 109.443C111.933 107.792 112.74 105.752 113.347 104.101L113.564 103.903Z"/><path fill="#D7DC4B" transform="scale(5.01961 5.02143)" d="M120.388 100.693C120.556 101.402 120.753 102.528 120.334 103.185L118.995 103.109C117.933 103.707 118.848 104.211 118.677 104.6C118.009 106.122 116.968 107.947 116.108 109.317C115.945 107.177 116.066 105.739 115.742 103.432L115.869 103.153C117.447 102.414 118.672 101.266 120.388 100.693Z"/><path fill="#D7DC4B" transform="scale(5.01961 5.02143)" d="M161.943 102.386L162.274 103.557C163.301 104.208 163.968 104.545 165.223 104.623C165.142 106.479 164.77 108.929 162.405 108.647L161.994 108.306C161.779 108.262 161.557 108.115 161.36 108.003L161.181 106.928C161.2 105.543 161.05 103.4 161.943 102.386Z"/><path fill="#26541C" transform="scale(5.01961 5.02143)" d="M161.943 102.386L162.274 103.557C161.708 105.302 161.828 106.482 161.994 108.306C161.779 108.262 161.557 108.115 161.36 108.003L161.181 106.928C161.2 105.543 161.05 103.4 161.943 102.386Z"/><path fill="#D7DC4B" transform="scale(5.01961 5.02143)" d="M152.257 102.197L154.014 102.247C154.134 104.33 154.147 104.981 152.675 106.59C152.005 107.323 150.285 108.285 149.339 107.809L149.316 107.441L149.315 105.854C149.86 105.127 150.537 104.333 151.412 104.07L151.764 104.1C152.323 103.41 152.173 103.196 152.257 102.197Z"/><path fill="#1A4141" transform="scale(5.01961 5.02143)" d="M149.315 105.854C149.86 105.127 150.537 104.333 151.412 104.07C151.104 105.491 150.287 106.373 149.316 107.441L149.315 105.854Z"/><path fill="#D7DC4B" transform="scale(5.01961 5.02143)" d="M131.342 104.919C132.491 104.515 132.495 104.306 133.508 104.536L133.858 104.881C133.726 106.718 133.762 107.747 133.867 109.584L132.732 109.378C131.978 110.017 132.509 110.213 132.052 110.951C132.135 108.804 130.448 106.949 130.382 105.316L131.342 104.919Z"/><path fill="#D7DC4B" transform="scale(5.01961 5.02143)" d="M155.006 102.745L156.747 103.259C157.324 105.238 157.842 105.926 159.303 107.388L159.071 107.833C158.079 108.17 156.221 108.32 155.12 108.446C155.474 106.146 155.33 105.058 155.006 102.745Z"/><path fill="#D7DC4B" transform="scale(5.01961 5.02143)" d="M134.526 105.748C135.776 106.266 137.134 106.868 138.424 107.238C138.222 108.44 138.028 109.642 137.843 110.847C136.404 109.194 135.108 107.901 134.526 105.748Z"/><path fill="#D7DC4B" transform="scale(5.01961 5.02143)" d="M41.179 101.92C42.3689 102.129 43.3416 102.307 44.558 102.382C44.2144 103.327 43.9892 104.267 43.2291 104.895C41.8798 105.176 41.1928 103.969 40.5825 102.867C40.6747 102.482 40.9289 102.224 41.179 101.92Z"/><path fill="#E2E34B" transform="scale(5.01961 5.02143)" d="M145.267 103.254C145.909 104.154 146.763 105.28 147.34 106.192L147.362 106.507C146.664 107.317 146.122 107.318 145.374 106.704C144.797 105.355 144.845 104.628 145.267 103.254Z"/><path fill="#E2E34B" transform="scale(5.01961 5.02143)" d="M132.052 110.951C132.509 110.213 131.978 110.017 132.732 109.378L133.867 109.584L134.103 113.205L131.753 111.041L132.052 110.951Z"/><path fill="#222121" transform="scale(5.01961 5.02143)" d="M125.868 73.5361C126.382 72.1656 127.797 68.6532 128.667 67.6658C130.57 66.8834 131.841 68.5325 134.356 68.3884L134.453 68.3819C136.899 72.0746 145.017 86.187 149.798 85.8104C150.367 86.7643 151.345 91.5996 151.958 93.4711C151.232 96.3191 148.839 102.986 144.492 99.1526C142.302 97.2218 142.205 93.3042 142.186 90.5157C143.469 89.7673 146.027 88.0543 145.171 86.3308L144.531 86.1538C142.144 86.5299 140.742 88.7717 139.397 90.6004C137.012 90.4676 136.019 90.3183 133.711 89.7854C133.241 87.6266 132.76 86.5541 131.609 84.7331C131.342 84.4387 131.051 84.4059 130.659 84.2972C129.586 82.9007 127.938 81.1619 126.728 79.8172C126.863 77.0345 126.834 76.1619 125.868 73.5361Z"/><path fill="#E4E5E6" transform="scale(5.01961 5.02143)" d="M130.659 84.2972C130.995 83.3818 131.172 82.6297 131.964 82.0602L132.392 82.0638C132.57 83.0526 132.095 83.8447 131.609 84.7331C131.342 84.4387 131.051 84.4059 130.659 84.2972Z"/><path fill="#222121" transform="scale(5.01961 5.02143)" d="M92.373 63.2484C95.5608 62.1008 114.888 61.3703 119.078 61.8069C118.848 67.3501 114.518 64.2211 114.727 71.7776L110.289 71.7772C110.289 73.3595 110.358 74.4611 109.399 75.8139C108.314 77.3447 106.231 80.3254 104.199 78.5749C103.234 76.641 104.192 73.9115 104.773 71.8899L101.692 73.0319L100.939 75.7057L98.4998 77.1907C98.19 78.7442 98.0068 81.037 96.7342 81.9088C95.0307 81.6159 94.9394 78.1819 94.7618 76.7572C94.0026 76.107 93.3102 75.5035 92.498 74.918C93.1198 73.9216 94.1632 72.1633 94.849 71.3024C91.7652 69.2265 92.1195 68.7717 94.0189 65.8856C93.4634 65.0435 92.8362 64.1354 92.373 63.2484Z"/><path fill="#00ADEF" transform="scale(5.01961 5.02143)" d="M92.1431 94.8735C92.4433 94.2757 95.3667 91.9011 96.0324 91.3953C96.2394 91.6363 96.9146 92.3915 97.0458 92.6169C104.454 95.1245 106.087 95.5723 113.723 92.6535C115.03 92.1537 117.493 91.5061 118.94 91.4514L119.261 91.754C119.297 93.9407 119.373 98.8242 120.388 100.693C118.672 101.266 117.447 102.414 115.869 103.153L115.742 103.432L114.572 103.927L114.241 104.049L113.564 103.903L113.347 104.101C112.787 103.993 110.964 103.987 110.302 103.971L109.957 104.076L109.38 103.959L109.087 104.193C108.011 103.906 101.454 104.086 99.9607 104.112L98.6356 104.147L97.3424 104.347L97.2586 104.398C96.8055 104.491 95.8095 104.539 95.3078 104.578L94.0154 104.505L93.5475 104.458L93.1867 103.76C93.3431 102.783 93.2822 102.394 93.1833 101.422C92.2482 100.118 91.2756 99.2093 89.9022 98.3945C90.5386 97.4374 91.6551 96.7736 92.6128 96.118L92.1431 94.8735Z"/><path fill="#01778C" transform="scale(5.01961 5.02143)" d="M113.564 103.903C115.571 102.062 115.654 96.9734 117.647 94.5187C118.39 95.9694 115.464 99.498 115.859 103.064L115.869 103.153L115.742 103.432L114.572 103.927L114.241 104.049L113.564 103.903Z"/><path fill="#FDCE9B" transform="scale(5.01961 5.02143)" d="M92.1431 94.8735C92.4433 94.2757 95.3667 91.9011 96.0324 91.3953C96.2394 91.6363 96.9146 92.3915 97.0458 92.6169C95.7073 93.7148 94.0098 95.1761 92.6128 96.118L92.1431 94.8735Z"/><path fill="#07A9DB" transform="scale(5.01961 5.02143)" d="M93.1833 101.422C94.1433 100.986 94.3752 100.674 95.2516 100.838C95.6691 101.452 95.3011 103.591 95.3078 104.578L94.0154 104.505L93.5475 104.458L93.1867 103.76C93.3431 102.783 93.2822 102.394 93.1833 101.422Z"/><path fill="#01778C" transform="scale(5.01961 5.02143)" d="M97.3424 104.347C98.2412 102.928 98.5755 98.1844 100.147 97.1599L100.357 97.431C99.839 98.875 98.2342 102.729 98.8806 103.951L99.9607 104.112L98.6356 104.147L97.3424 104.347Z"/><path fill="#01778C" transform="scale(5.01961 5.02143)" d="M109.38 103.959C110.077 102.628 110.96 100.589 111.868 99.5067C112.104 100.331 110.731 103.096 110.302 103.971L109.957 104.076L109.38 103.959Z"/><path fill="#FEFEFE" transform="scale(5.01961 5.02143)" d="M71.1741 93.5861C72.4168 92.2542 73.6855 90.9468 74.9795 89.6647C75.6406 92.6563 76.0131 93.7702 78.3307 95.9551L79.1314 96.0515C79.4293 96.9275 79.8573 97.9357 79.7751 98.8316C80.1673 100.972 80.7342 103.636 80.8125 105.763C80.9344 106.333 81.6957 109.737 81.6757 110.107C80.9648 110.547 80.3306 111.045 79.5055 111.066L78.2973 111.084L76.8066 110.863C74.9877 111.004 71.9496 110.87 71.4271 108.749C71.1799 107.745 71.6915 106.832 72.0662 105.905C72.7834 103.591 73.1611 97.6814 73.2647 95.1894L71.1741 93.5861Z"/><path fill="#00ADEF" transform="scale(5.01961 5.02143)" d="M79.1314 96.0515C79.4293 96.9275 79.8573 97.9357 79.7751 98.8316C80.1673 100.972 80.7342 103.636 80.8125 105.763C80.9344 106.333 81.6957 109.737 81.6757 110.107C80.9648 110.547 80.3306 111.045 79.5055 111.066L78.2973 111.084L76.8066 110.863C76.4804 109.639 76.1472 107.122 75.9346 105.774C75.8508 105.468 75.79 105.156 75.7526 104.841C75.448 102.184 76.6491 98.0625 78.3307 95.9551L79.1314 96.0515Z"/><path fill="#0C7973" transform="scale(5.01961 5.02143)" d="M78.3214 101.167C79.0288 102.166 79.0004 103.75 78.9992 104.967L80.8125 105.763C80.9344 106.333 81.6957 109.737 81.6757 110.107C80.9648 110.547 80.3306 111.045 79.5055 111.066L78.2973 111.084L76.8066 110.863C76.4804 109.639 76.1472 107.122 75.9346 105.774C76.8128 105.301 77.0592 105.229 78.0295 104.997L78.3214 101.167Z"/><path fill="#D7DC4B" transform="scale(5.01961 5.02143)" d="M78.9992 104.967L80.8125 105.763C80.9344 106.333 81.6957 109.737 81.6757 110.107C80.9648 110.547 80.3306 111.045 79.5055 111.066C79.5064 109.436 79.1632 106.671 78.9992 104.967Z"/><path fill="#D7DC4B" transform="scale(5.01961 5.02143)" d="M75.9346 105.774C76.8128 105.301 77.0592 105.229 78.0295 104.997C78.0157 106.851 77.9782 109.261 78.2973 111.084L76.8066 110.863C76.4804 109.639 76.1472 107.122 75.9346 105.774Z"/><path fill="#00ADEF" transform="scale(5.01961 5.02143)" d="M131.45 92.7072C133.216 91.9669 135.036 90.9501 136.976 91.6987C138.89 92.4371 140.642 96.451 141.117 98.2445C139.705 99.4016 139.295 100.244 138.616 101.938L138.945 104.7C138.836 105.618 138.791 106.384 138.424 107.238C137.134 106.868 135.776 106.266 134.526 105.748L134.198 105.022L133.858 104.881L133.508 104.536C132.495 104.306 132.491 104.515 131.342 104.919L130.382 105.316L130.312 105.159C129.088 102.365 129.168 100.976 130.275 98.1526C129.756 97.2886 129.102 96.3288 128.547 95.471L129.933 93.2152L131.45 92.7072Z"/><path fill="#01778C" transform="scale(5.01961 5.02143)" d="M131.342 104.919C131.578 104.487 132.221 103.336 132.529 103.033C133.692 101.888 135.582 94.652 136.67 94.1585C136.041 97.8739 133.957 100.943 134.198 105.022L133.858 104.881L133.508 104.536C132.495 104.306 132.491 104.515 131.342 104.919Z"/><path fill="#FEFEFE" transform="scale(5.01961 5.02143)" d="M119.261 91.754C123.787 94.1833 122.393 96.0874 124.377 98.5539L124.619 98.3689C124.712 99.6956 125.264 100.193 126.211 101.105C125.529 102.103 125.438 103.213 125.248 104.4L125.024 104.49C124.906 106.148 124.938 107.221 125.005 108.868C124.958 109.295 124.96 109.181 124.643 109.556C123.43 109.773 121.286 109.595 119.987 109.534C119.92 107.652 120.183 105.118 120.334 103.185C120.753 102.528 120.556 101.402 120.388 100.693C119.373 98.8242 119.297 93.9407 119.261 91.754Z"/><path fill="#00ADEF" transform="scale(5.01961 5.02143)" d="M124.619 98.3689C124.712 99.6956 125.264 100.193 126.211 101.105C125.529 102.103 125.438 103.213 125.248 104.4L125.024 104.49C124.33 104.443 123.979 104.462 123.382 104.081C122.03 101.808 124.623 100.25 124.377 98.5539L124.619 98.3689Z"/><path fill="#FDCE9B" transform="scale(5.01961 5.02143)" d="M89.471 86.2257C91.9474 86.0293 93.2011 87.4312 93.7299 89.8259C94.1899 91.9097 90.8635 94.3115 90.851 95.3756C91.4407 95.3724 91.6398 95.1942 92.1431 94.8735L92.6128 96.118C91.6551 96.7736 90.5386 97.4374 89.9022 98.3945L89.2461 98.8905C89.0492 97.9932 88.6719 97.1434 87.9076 96.6094C86.2278 96.5191 86.2785 98.2096 85.0974 98.6175L84.5929 98.1588C86.3459 93.6631 85.0416 91.0591 89.471 86.2257Z"/><path fill="#222121" transform="scale(5.01961 5.02143)" d="M76.6026 77.7894L77.8857 77.9536C80.5787 83.38 81.1057 90.1591 79.1836 95.9038C79.1672 95.9534 79.1498 96.0026 79.1314 96.0515L78.3307 95.9551C76.0131 93.7702 75.6406 92.6563 74.9795 89.6647C75.3732 86.0566 75.6931 84.6278 77.492 81.4471C77.0868 80.092 76.8753 79.1723 76.6026 77.7894Z"/><path fill="#A9A495" transform="scale(5.01961 5.02143)" d="M77.4172 87.1074L77.7703 87.4502C78.178 88.3898 77.9639 89.3303 77.6338 90.2505C76.6455 89.3583 77.0703 88.2036 77.4172 87.1074Z"/><path fill="#00ADEF" transform="scale(5.01961 5.02143)" d="M84.5929 98.1588L85.0974 98.6175C86.2785 98.2096 86.2278 96.5191 87.9076 96.6094C88.6719 97.1434 89.0492 97.9932 89.2461 98.8905C89.0325 100.318 88.9244 101.541 88.2697 102.843L88.0763 103.082L87.2123 103.788C86.0443 104.02 85.2048 104.755 84.2555 105.464C83.726 103.709 83.977 99.9737 84.231 98.1255L84.5929 98.1588Z"/><defs><linearGradient id="gradient_0" gradientUnits="userSpaceOnUse" x1="88.761452" y1="89.285812" x2="97.175461" y2="90.192078"><stop offset="0" stop-color="#040A0C"/><stop offset="1" stop-color="#272424"/></linearGradient></defs><path fill="url(#gradient_0)" transform="scale(5.01961 5.02143)" d="M89.33 84.0148C92.0625 84.6483 94.297 87.8232 97.789 89.6139L97.0122 90.0381L96.0324 91.3953C95.3667 91.9011 92.4433 94.2757 92.1431 94.8735C91.6398 95.1942 91.4407 95.3724 90.851 95.3756C90.8635 94.3115 94.1899 91.9097 93.7299 89.8259C93.2011 87.4312 91.9474 86.0293 89.471 86.2257L89.33 84.0148Z"/><path fill="#222121" transform="scale(5.01961 5.02143)" d="M89.33 84.0148L89.471 86.2257C85.0416 91.0591 86.3459 93.6631 84.5929 98.1588L84.231 98.1255C84.4646 93.228 86.0794 87.7762 89.33 84.0148Z"/><path fill="#222121" transform="scale(5.01961 5.02143)" d="M77.3678 64.4465C77.0374 64.9091 75.4858 66.983 75.4881 67.3392C75.5038 69.8105 77.0515 75.9358 77.8857 77.9536L76.6026 77.7894L75.818 75.0182C75.3021 72.1334 74.8402 69.7764 74.1299 66.9154C75.2713 65.9803 76.1457 65.2965 77.3678 64.4465Z"/><path fill="#222121" transform="scale(5.01961 5.02143)" d="M118.862 86.1439C121.751 90.1781 123.346 93.543 124.619 98.3689L124.377 98.5539C122.393 96.0874 123.787 94.1833 119.261 91.754L118.94 91.4514C121.314 90.0487 119.83 88.3169 118.862 86.1439Z"/><path fill="#E2E34B" transform="scale(5.01961 5.02143)" d="M88.2697 102.843L88.853 103.187C89.1991 104.657 88.8273 105.481 89.0068 106.822C88.8337 107.774 88.964 107.987 88.3541 108.568C87.8608 108.421 87.7981 108.398 87.4352 108.027L87.1847 107.87L86.9543 108.476C86.1355 106.474 86.5814 105.851 87.2123 103.788L88.0763 103.082L88.2697 102.843Z"/><path fill="#3E6E25" transform="scale(5.01961 5.02143)" d="M87.2123 103.788L88.0763 103.082C87.9229 104.057 87.6371 107.323 87.4352 108.027L87.1847 107.87L86.9543 108.476C86.1355 106.474 86.5814 105.851 87.2123 103.788Z"/><path fill="#E2E34B" transform="scale(5.01961 5.02143)" d="M84.2555 105.464C85.2048 104.755 86.0443 104.02 87.2123 103.788C86.5814 105.851 86.1355 106.474 86.9543 108.476C86.8276 109.171 86.8002 109.286 86.3104 109.781C84.6997 108.559 84.6665 107.413 84.2555 105.464Z"/><path fill="#768A93" transform="scale(5.01961 5.02143)" d="M147.34 106.192C147.624 105.865 148.624 103.361 149.202 102.512C149.696 103.441 148.402 104.083 149.315 105.854L149.316 107.441L149.339 107.809C148.078 107.455 148.425 107.075 147.362 106.507L147.34 106.192Z"/><path fill="#1E774A" transform="scale(5.01961 5.02143)" d="M125.248 104.4C125.381 104.49 125.789 104.735 125.843 104.842C126.329 107.178 127.318 105.941 127.658 107.384L127.221 108.651C126.695 107.691 126.733 107.348 125.903 106.916C125.285 107.432 125.132 108.033 125.005 108.868C124.938 107.221 124.906 106.148 125.024 104.49L125.248 104.4Z"/><path fill="#07A9DB" transform="scale(5.01961 5.02143)" d="M126.211 101.105C126.708 101.919 127.197 102.557 127.26 103.503C126.945 104.273 126.668 104.515 125.843 104.842C125.789 104.735 125.381 104.49 125.248 104.4C125.438 103.213 125.529 102.103 126.211 101.105Z"/><path fill="#5C5755" transform="scale(5.01961 5.02143)" d="M129.933 93.2152C130.07 91.0566 130.183 89.3265 130.52 87.1963L131.45 92.7072L129.933 93.2152Z"/><path fill="#222121" transform="scale(5.01961 5.02143)" d="M97.789 89.6139C98.404 90.0378 99.6262 90.7485 99.8438 91.3848C99.0041 91.5075 97.7334 90.5236 97.0122 90.0381L97.789 89.6139Z"/><path fill="#222121" transform="scale(5.01961 5.02143)" d="M88.2065 65.7873L88.4942 66.1206C88.7209 70.2393 88.2973 75.595 83.9695 77.778C82.6488 78.4442 81.755 78.2423 80.4256 77.739C78.6485 75.2266 79.3167 71.494 79.5299 68.4266C82.4723 67.7917 85.3728 66.7904 88.2065 65.7873Z"/><path fill="#222121" transform="scale(5.01961 5.02143)" d="M122.191 70.1461C122.362 70.1664 122.531 70.1975 122.698 70.2393C122.985 70.3133 123.318 70.4643 123.52 70.6756C126.597 73.8915 122.567 77.5994 120.123 78.9802L119.709 79.1669C116.101 78.7296 120.145 71.7311 122.191 70.1461Z"/><path fill="#222121" transform="scale(5.01961 5.02143)" d="M108.955 80.6293C109.82 80.6941 110.204 81.138 110.622 81.8422C111.06 84.1533 109.134 86.0851 107.154 86.9254C106.461 86.8542 106.339 86.8402 105.763 86.462C104.698 84.4782 107.552 81.8848 108.955 80.6293Z"/><path fill="#FEFEFE" transform="scale(5.01961 5.02143)" d="M44.2849 89.5953C45.4219 87.5871 47.4691 87.1253 49.5908 87.5826C51.5411 87.4806 57.9043 87.1536 59.7192 87.8033C60.8041 87.9093 66.1742 88.1746 66.5389 88.4623C67.2283 91.2366 66.4336 91.8954 66.4186 94.3454C66.4141 95.0784 67.5585 97.3164 67.5852 98.8004C67.6603 101.963 67.0603 102.972 69.0405 105.467L68.8598 106.075L68.4004 106.155C65.8186 104.832 63.5833 103.994 62.5081 101.404L62.4763 101.313C61.5001 101.168 61.3773 100.794 60.9112 100.044C59.818 99.9352 59.2388 99.1439 57.5121 98.7929C57.1637 99.2111 56.8356 99.6892 56.3337 99.8816C54.1476 102.006 52.5616 101.031 49.7503 100.934C48.8018 103.033 49.7339 104.041 49.4278 105.215L48.9444 106.506C47.3368 107.69 46.1513 106.478 44.7126 105.508C44.875 104.331 45.1248 103.34 45.4047 102.193L44.558 102.382C43.3416 102.307 42.3689 102.129 41.179 101.92C40.9289 102.224 40.6747 102.482 40.5825 102.867C39.7255 103.65 39.4567 103.978 38.2714 103.92C38.0928 103.911 37.9145 103.896 37.7367 103.878C37.4704 103.39 37.4516 103.295 37.348 102.747L37.657 102.444C36.5514 101.81 36.1866 101.06 35.5879 99.9923C36.6052 96.6795 39.1736 96.2753 41.4567 93.5379C42.6942 92.0542 43.2427 91.2088 44.2849 89.5953Z"/><path fill="#222121" transform="scale(5.01961 5.02143)" d="M44.2849 89.5953C45.7061 89.4543 47.1203 89.8084 47.1846 91.5489C47.2831 94.2116 45.1023 96.7453 43.171 98.3752L42.7955 98.3843C42.3058 99.4677 41.7133 100.89 41.179 101.92C40.9289 102.224 40.6747 102.482 40.5825 102.867C39.7255 103.65 39.4567 103.978 38.2714 103.92C38.0928 103.911 37.9145 103.896 37.7367 103.878C37.4704 103.39 37.4516 103.295 37.348 102.747L37.657 102.444C36.5514 101.81 36.1866 101.06 35.5879 99.9923C36.6052 96.6795 39.1736 96.2753 41.4567 93.5379C42.6942 92.0542 43.2427 91.2088 44.2849 89.5953Z"/><path fill="#DFE1BD" transform="scale(5.01961 5.02143)" d="M37.657 102.444C42.3516 103.108 40.3116 99.5714 41.8391 98.2114L42.7955 98.3843C42.3058 99.4677 41.7133 100.89 41.179 101.92C40.9289 102.224 40.6747 102.482 40.5825 102.867C39.7255 103.65 39.4567 103.978 38.2714 103.92C38.0928 103.911 37.9145 103.896 37.7367 103.878C37.4704 103.39 37.4516 103.295 37.348 102.747L37.657 102.444Z"/><path fill="#222121" transform="scale(5.01961 5.02143)" d="M49.5908 87.5826C51.5411 87.4806 57.9043 87.1536 59.7192 87.8033C59.7775 90.9633 59.7665 92.0888 58.6266 95.0418C57.8186 94.0463 57.098 92.4814 56.1168 91.7333C55.8107 92.7176 55.7011 93.1602 54.706 93.3622C52.9396 92.7598 50.7213 89.2284 49.5908 87.5826Z"/><path fill="#222121" transform="scale(5.01961 5.02143)" d="M66.5389 88.4623C67.2283 91.2366 66.4336 91.8954 66.4186 94.3454C66.4141 95.0784 67.5585 97.3164 67.5852 98.8004C66.8079 99.666 65.9955 100.53 65.2061 101.388C66.0949 102.353 66.2405 102.404 66.2681 103.53L65.9721 103.608C63.3297 101.345 63.678 97.5046 64.3773 94.4397C62.8961 93.0945 59.8365 91.4177 62.0341 89.3012C64.733 88.4784 65.2815 92.0359 65.7231 93.9102C66.0225 92.1152 66.0725 90.2249 66.5389 88.4623Z"/><path fill="#00ADEF" transform="scale(5.01961 5.02143)" d="M49.7503 100.934C49.5346 99.67 49.3188 98.6569 49.3907 97.3617L49.6336 97.184C50.6386 97.8271 51.5336 98.3801 52.6616 98.7928C53.9563 99.2664 55.2407 99.0216 56.3337 99.8816C54.1476 102.006 52.5616 101.031 49.7503 100.934Z"/><path fill="#5C5755" transform="scale(5.01961 5.02143)" d="M61.723 95.2099C62.0536 96.584 62.6016 98.6838 62.6908 100.021L62.4763 101.313C61.5001 101.168 61.3773 100.794 60.9112 100.044C59.818 99.9352 59.2388 99.1439 57.5121 98.7929C58.896 97.3834 60.0662 96.3281 61.723 95.2099Z"/><path fill="#FDCE9B" transform="scale(5.01961 5.02143)" d="M60.9112 100.044C60.1692 98.7611 59.6509 98.2721 60.3692 96.858C61.6687 96.7551 61.9997 99.3124 62.6908 100.021L62.4763 101.313C61.5001 101.168 61.3773 100.794 60.9112 100.044Z"/><path fill="#00ADEF" transform="scale(5.01961 5.02143)" d="M42.7955 98.3843L43.171 98.3752C43.9958 98.7221 45.1054 99.1503 45.8861 99.5343L45.4047 102.193L44.558 102.382C43.3416 102.307 42.3689 102.129 41.179 101.92C41.7133 100.89 42.3058 99.4677 42.7955 98.3843Z"/><path fill="#222121" transform="scale(5.01961 5.02143)" d="M48.1635 90.3831C49.5611 90.8961 49.9454 92.8548 50.1142 94.1317C47.9806 93.4302 47.9359 92.4163 48.1635 90.3831Z"/><path fill="#222121" transform="scale(5.01961 5.02143)" d="M52.9054 94.8912C54.2311 95.0376 54.5729 95.7388 55.1161 96.8191C53.6472 96.7174 53.3667 96.145 52.9054 94.8912Z"/><path fill="#FEFEFE" transform="scale(5.01961 5.02143)" d="M151.156 47.5789C153.116 49.1645 154.696 50.2324 155.962 52.4374C157.089 53.6817 158.413 55.064 159.484 56.3204C155.39 59.9462 154.411 58.5608 149.48 58.7268C148.353 58.7647 146.058 59.4287 144.759 59.4868C140.101 59.6951 135.706 57.8527 131.305 56.6454C129.584 56.173 127.925 56.9269 126.364 55.6375C125.926 54.7915 126.001 55.1468 126.057 54.1976C126.251 53.8493 126.864 53.4056 127.239 53.3456C135.735 51.9899 141.556 45.5501 150.45 48.8554L151.156 47.5789Z"/><path fill="#00ADEF" transform="scale(5.01961 5.02143)" d="M151.156 47.5789C153.116 49.1645 154.696 50.2324 155.962 52.4374C154.593 52.5657 152.071 49.9497 150.45 48.8554L151.156 47.5789Z"/><path fill="#1E774A" transform="scale(5.01961 5.02143)" d="M120.798 1.15304C124.897 2.91739 131.569 2.91346 134.258 7.52151C137.572 13.2021 135.332 18.8433 130.069 22.2777C125.182 23.7091 120.595 22.2421 115.975 20.5778C116.232 18.4018 120.002 3.08928 120.798 1.15304ZM119.201 18.7262C122.2 19.4892 125.803 20.5135 128.844 19.4281C136.759 13.0013 131.309 6.22137 122.807 4.86487C121.769 9.5264 120.566 14.1497 119.201 18.7262Z"/><path fill="#1E774A" transform="scale(5.01961 5.02143)" d="M153.851 14.0987C155.3 14.2124 159.994 17.8845 161.261 19.0632C163.455 21.1042 164.876 23.5342 164.944 26.5903C165.023 29.1531 164.074 31.641 162.307 33.4994C160.087 35.808 157.489 36.7099 154.37 36.7779C149.997 35.8815 146.657 33.1361 143.182 30.4817C144.836 27.5109 146.851 24.7746 148.726 21.9367C150.446 19.3329 152.075 16.6605 153.851 14.0987ZM146.953 29.5919C149.709 31.4906 151.168 32.6359 154.357 33.645C156.627 33.455 158.383 33.1725 159.97 31.3044C161.157 29.8804 161.726 28.0403 161.548 26.1947C161.267 23.1704 157.583 18.5167 154.661 18.1187C152.11 21.9034 149.63 25.9408 146.953 29.5919Z"/><path fill="#1E774A" transform="scale(5.01961 5.02143)" d="M193.203 57.2187C195.084 57.0967 196.251 62.5395 196.377 64.0704C196.867 69.9764 193.143 73.3976 188.073 69.1981C187.749 69.8191 187.412 70.4331 187.063 71.0398C186.399 72.1904 182.575 78.4324 181.687 78.6694C181.051 78.0406 180.808 76.8354 180.549 75.9406C181.108 74.8051 181.651 73.9473 182.319 72.8843C184.476 69.7127 185.243 68.148 185.939 64.3978C182.712 65.0671 180.215 66.0983 177.328 67.6311C177.098 67.2302 176.876 66.8249 176.661 66.4153C176.265 65.639 176.239 65.4022 176.481 64.6685C177.696 63.8864 181.263 62.5217 182.78 61.8735C186.282 60.3841 189.757 58.8323 193.203 57.2187ZM187.281 63.192C188.212 64.9058 188.957 66.607 190.45 67.8432C194.147 67.4207 194.957 64.6297 192.834 61.6203C192.657 61.37 191.914 61.4723 191.604 61.4841C190.363 61.9524 188.418 62.622 187.281 63.192Z"/><path fill="#1E774A" transform="scale(5.01961 5.02143)" d="M47.9185 17.0482C53.4909 17.2054 53.0639 21.0696 52.8418 25.471C55.1994 26.4935 59.3123 28.1237 61.6814 29.2667C61.8128 29.5016 61.9253 29.7028 62.0192 29.8706L61.8308 30.4902C60.0878 32.2408 59.0211 31.1511 57.1939 30.5248C55.1872 29.837 50.1701 27.1898 48.5335 29.0782C48.402 29.9001 49.0077 30.6441 49.4616 31.3911C50.0136 32.2796 52.3615 35.8571 52.3559 36.7202C51.696 37.5011 51.2391 38.074 50.1446 37.9172C48.967 36.6295 40.6605 23.3731 39.6752 21.4922C42.4026 19.7799 44.8291 17.7843 47.9185 17.0482ZM43.264 22.229C43.7922 22.9354 46.365 26.5242 46.7299 26.8592C48.3934 25.7519 49.8992 24.7181 50.3131 22.6216C50.7221 20.5502 48.6442 20.0867 47.0928 20.2384C45.5765 20.9306 44.702 21.3631 43.264 22.229Z"/><path fill="#1E774A" transform="scale(5.01961 5.02143)" d="M32.4953 28.7112C33.6384 28.6856 34.9932 29.9026 35.8697 30.6061C32.827 31.8103 29.6267 33.5586 28.1242 36.6246C27.2779 38.3102 27.1491 40.2664 27.7669 42.0485C28.4456 43.9447 29.8504 45.4933 31.6718 46.3528C33.2675 47.1283 35.1087 47.2266 36.7779 46.6253C39.5018 45.6474 40.859 43.4951 42.0314 41.0344C41.3262 40.1588 40.2273 39.0763 39.4288 38.2426C38.6116 39.4013 37.482 41.2815 35.8549 40.6207C34.8738 38.7692 38.3561 35.2844 39.4109 34.1197C41.4673 35.8898 43.9482 38.248 45.8485 40.1693C44.1596 43.5722 42.6658 46.6564 39.2439 48.7123C34.4974 51.5642 28.8706 50.1955 26.0603 45.363C24.6073 42.9117 24.2109 39.9758 24.9619 37.2269C26.0659 33.1488 29.0101 30.6926 32.4953 28.7112Z"/><path fill="#1E774A" transform="scale(5.01961 5.02143)" d="M65.1715 6.60572L65.2899 6.61266C65.6113 6.62888 66.2179 6.67871 66.4804 6.80266C68.8157 7.90539 79.9889 20.4888 80.6516 21.913C80.5064 22.839 80.6692 22.5472 80.0668 23.164C77.4801 23.5988 75.5273 19.3406 73.5344 19.0351C72.0999 19.7195 68.0406 21.0738 66.5576 21.3949C66.6933 23.3433 66.555 25.9768 66.5012 27.9832L63.4156 29.0381C63.7499 24.9994 64.1622 9.08975 65.1715 6.60572ZM66.7059 18.5887C68.1354 17.9744 68.8604 17.6929 70.3872 17.2631L71.2257 16.9292C71.5724 15.3146 68.3476 12.3144 67.0432 11.5761C66.9088 13.8634 66.7224 16.3113 66.7059 18.5887Z"/><path fill="#1E774A" transform="scale(5.01961 5.02143)" d="M177.512 34.2952C178.301 34.3659 178.579 34.5588 178.899 35.1878C178.828 38.3131 172.818 51.5507 171.35 55.5762C170.6 55.026 169.786 54.3244 169.059 53.7244C169.481 52.1101 170.809 49.0413 171.466 47.4244L169.85 45.7007C168.529 44.1813 167.544 43.1295 166.538 41.381C164.39 42.0201 162.591 42.6464 160.487 43.4246C159.604 42.8058 158.792 41.9458 158.024 41.1789C161.937 39.5629 173.397 35.2433 177.512 34.2952ZM168.907 40.3332C170.008 41.4067 170.674 42.1894 171.642 43.3586L172.241 44.1467L172.679 44.1654C173.758 42.9467 174.386 40.2323 174.841 38.6122C174.647 38.269 174.766 38.3603 174.421 38.2573C172.587 39.1108 170.819 39.6811 168.907 40.3332Z"/><path fill="#1E774A" transform="scale(5.01961 5.02143)" d="M16.3907 47.3847L18.9445 48.3068C18.0736 50.6438 15.6121 54.2217 14.1828 56.4396C15.7053 57.1114 17.7497 58.4722 19.2125 59.3912C20.4194 56.9088 21.7617 54.0873 23.5152 51.9465C24.2393 52.2217 25.3212 52.8925 26.0287 53.3034C24.4776 55.6658 22.737 58.4574 21.0399 60.6727L26.3069 63.9713L28.7765 59.3639C29.468 58.194 30.0406 57.0058 31.1775 56.2851C31.9521 56.3077 31.6904 56.1987 32.2482 56.6765C32.8701 58.8096 28.4628 65.5564 27.1951 67.9579C21.6282 64.5291 16.0834 61.0644 10.5612 57.5641C11.8971 54.8361 14.743 50.3793 16.3907 47.3847Z"/><path fill="#1E774A" transform="scale(5.01961 5.02143)" d="M8.3917 62.6097C9.03315 62.81 9.38856 62.9641 9.99975 63.2473C11.4825 65.1462 8.49757 68.365 8.44918 70.223C9.70455 71.8111 22.6362 73.9356 23.7979 77.3253C23.7344 78.1423 23.8699 77.9297 23.3696 78.4073C21.6283 78.7936 17.6487 77.1263 15.7926 76.4728C12.9992 75.4119 10.2177 74.3203 7.44829 73.1984C7.01461 74.8663 6.10703 80.2775 3.65728 79.485C2.46108 77.4534 7.22419 65.0151 8.3917 62.6097Z"/><path fill="#1E774A" transform="scale(5.01961 5.02143)" d="M187.083 46.9193L187.827 47.0911C188.482 47.6632 188.849 47.9033 189.073 48.759C189.024 48.9595 188.965 49.1998 188.896 49.4799C184.992 52.7267 178.22 57.0342 174.399 60.0905C173.647 60.2643 173.908 60.2982 173.223 60.07C172.666 59.4419 172.397 59.2141 172.265 58.368C172.528 57.0883 185.06 48.4112 187.083 46.9193Z"/><path fill="#1E774A" transform="scale(5.01961 5.02143)" d="M199.908 76.7969L200.672 76.8664C201.257 77.4502 201.464 78.7097 201.678 79.5619C197.718 80.8748 187.976 83.0814 183.816 83.9032C183.57 83.9497 183.24 83.8688 182.976 83.8281C182.168 83.1099 182.151 82.6625 182.353 81.6302C183.19 80.6495 197.84 77.2936 199.908 76.7969Z"/><path fill="#1E774A" transform="scale(5.01961 5.02143)" d="M19.7746 112.668C20.2598 112.815 20.125 112.783 20.4893 113.241C20.5395 114.002 20.7113 114.975 20.3303 115.59C18.8054 116.026 4.68831 116.86 2.29373 117.01C1.42174 116.285 1.30953 116.001 1.6003 114.987C3.1569 113.415 16.7557 112.821 19.7746 112.668Z"/><path fill="#D7DC4B" transform="scale(5.01961 5.02143)" d="M187.995 132.014C189.848 131.886 192.164 131.922 194.03 131.93C194.294 134.131 194.109 135.868 193.877 138.043C192.446 138.246 189.63 138.213 188.083 138.233C187.788 136.118 187.642 134.136 187.995 132.014Z"/><path fill="#D7DC4B" transform="scale(5.01961 5.02143)" d="M10.0958 131.915C11.9845 131.87 14.1942 131.948 16.108 131.967C16.248 133.887 16.3566 136.32 16.0329 138.207C14.3228 137.994 11.8134 138.073 10.0993 138.267C10.029 136.301 9.86975 133.822 10.0958 131.915Z"/><path fill="#1E774A" transform="scale(5.01961 5.02143)" d="M1.5998 86.1439C4.35497 86.4419 18.7895 87.6156 20.3662 88.1518C21.5874 89.9251 18.0883 92.2885 16.7606 93.1901C12.7563 95.9091 8.47066 99.6912 4.12263 101.781C7.40902 102.12 15.0006 102.849 18.7397 103.283C18.9004 103.463 19.0385 103.617 19.154 103.746C19.3483 104.612 19.3606 104.78 19.0745 105.618C18.6347 106.052 18.7648 106.08 18.1287 106.057C12.1209 105.839 5.98705 104.769 0 104.48L0 101.895C4.74285 98.5725 11.358 93.8855 15.7856 90.2839C11.5488 90.15 5.48866 89.5639 1.19843 89.1076C1.3541 88.1251 1.52902 87.1355 1.5998 86.1439Z"/><path fill="#1E774A" transform="scale(5.01961 5.02143)" d="M100.508 0L110.365 0C111.347 0.709473 112.219 1.05049 112.166 2.32851C110.924 3.80548 105.11 3.04782 103.289 2.70201C103.316 4.59605 103.118 6.58952 102.971 8.48527C104.21 8.54697 110.919 8.56188 111.598 9.36665C111.759 10.0726 111.62 10.3902 111.417 11.0715C110.028 11.9299 104.552 11.5279 102.823 11.2883C103.002 12.8293 102.729 15.6734 102.568 17.2465C104.464 17.2327 111.199 17.2876 112.15 18.8315L111.932 19.2483C109.269 21.0233 102.816 20.2376 99.6449 19.964L100.508 0Z"/><path fill="#1E774A" transform="scale(5.01961 5.02143)" d="M186.779 91.9094C187.102 93.9418 187.55 98.6006 187.403 100.756C187.377 101.151 186.845 101.332 186.492 101.515C184.644 101.327 184.525 98.6935 184.434 97.185C184.286 94.7149 183.992 91.9693 184.275 89.5177C185.509 88.7853 200.474 87.5682 202.954 87.3922C203.042 89.1683 203.123 94.0823 204 95.3377L204 99.5355C203.325 99.5422 202.461 99.6068 202.039 99.1157C200.691 97.5474 201.016 92.586 201.007 90.504C199.465 90.7594 196.865 90.9021 195.235 91.0392C195.574 93.1813 196.31 98.646 194.699 100.114C192.515 99.5056 192.488 93.302 192.67 91.3994C190.646 91.6192 188.81 91.8052 186.779 91.9094Z"/><path fill="#1E774A" transform="scale(5.01961 5.02143)" d="M186.317 105.121C187.523 105.307 189.106 105.316 190.352 105.358C188.356 107.294 187.88 107.918 186.801 110.469C190.218 122.04 195.932 96.9806 204 109.822L204 114.147C203.431 115.036 202.686 116.64 201.562 116.663C200.806 116.679 200.568 117.016 199.935 116.549C199.769 114.921 202.71 110.731 200.702 109.61C197.134 107.618 194.544 116.47 190.393 116.583C187.855 116.651 187.346 116.487 185.287 115.071C183.607 111.529 184.012 108.309 186.317 105.121Z"/><path fill="#1E774A" transform="scale(5.01961 5.02143)" d="M92.0977 0L93.0616 0C93.3751 0.764909 93.4141 0.947757 93.4928 1.77135C92.8328 4.04025 88.7996 3.9221 86.7908 4.02869C87.4563 6.60181 89.7684 19.0299 89.0053 21.0029C88.4997 21.5062 87.7243 21.4556 87.1576 21.0952C85.8683 18.2593 84.6961 8.21485 84.1721 4.57987C83.5579 4.79715 82.9371 4.99491 82.3104 5.17283C80.9802 5.53667 77.0151 6.08929 76.5934 4.22462C78.4068 0.64731 88.9187 2.58553 92.0977 0Z"/><path fill="#FF9722" transform="scale(5.01961 5.02143)" d="M156.772 140C156.373 137.75 156.498 133.984 156.504 131.612C156.507 130.572 156.694 130.439 157.312 129.889C159.773 129.091 163.535 130.311 164.919 132.667C166.563 136.202 165.269 137.55 162.642 140L161.925 140L156.772 140ZM162.467 138.185C163.554 136.172 164.06 136.083 163.809 133.743C162.646 132.348 160.535 130.754 158.742 131.9C157.85 133.472 158.45 136.69 158.374 138.803C159.553 138.648 161.362 138.464 162.467 138.185Z"/><path fill="#FF9722" transform="scale(5.01961 5.02143)" d="M75.1152 140C75.0414 137.847 74.2087 130.795 76.4132 130.14C77.2229 130.346 77.6843 131.056 78.2366 131.71C78.9247 132.541 79.3119 133.246 79.8544 134.177C80.5796 133.208 83.236 129.483 84.6013 130.338L84.5255 131.023C83.9444 131.561 82.7856 132.419 82.867 133.266C81.8352 134.631 81.046 135.349 79.8168 136.516C78.8736 135.443 78.131 133.876 77.0592 133.055C76.5653 134.093 77.0314 138.47 77.0111 140L75.1152 140Z"/><path fill="#FF9722" transform="scale(5.01961 5.02143)" d="M136.471 129.955C138.019 129.939 141.165 129.775 142.426 130.618C141.876 132.621 138.926 130.291 137.572 132.59C137.807 134.459 141.253 133.836 142.2 135.029C141.318 136.592 139.054 134.818 138.001 136.156C137.843 137.174 137.767 136.837 138.14 137.663C140.167 139.283 141.143 137.785 142.815 140L136.575 140C136.497 136.883 136.355 133.055 136.471 129.955Z"/><path fill="#FF9722" transform="scale(5.01961 5.02143)" d="M117.632 131.532C116.664 131.555 115.059 131.811 114.722 130.733C116.129 129.421 119.553 129.651 121.383 129.801C122.386 130.173 122.331 129.997 122.97 130.741C122.388 131.83 121.27 131.56 120.162 131.494L119.644 131.628C119.301 132.578 119.518 138.614 119.541 140L117.785 140C117.693 137.178 117.642 134.355 117.632 131.532Z"/><path fill="#FF9722" transform="scale(5.01961 5.02143)" d="M40.4055 128.993C41.3356 131.833 41.5788 134.351 41.4675 137.325C41.4445 137.939 41.3289 137.835 41.7549 138.213C44.0225 138.389 44.772 138.249 46.4264 140L39.8852 140C39.53 135.466 39.3567 133.363 40.4055 128.993Z"/><path fill="#FF9722" transform="scale(5.01961 5.02143)" d="M59.1909 140C59.0886 137.512 58.7195 132.956 59.7144 130.73L60.1035 130.481C61.448 131.453 60.9974 138.221 60.965 140L59.1909 140Z"/><path fill="#FF9722" transform="scale(5.01961 5.02143)" d="M99.2278 140C99.0451 137.536 98.8315 132.627 99.7222 130.394L100.065 130.219C101.174 131.52 100.893 138.001 100.987 140L99.2278 140Z"/><path fill="#FF9722" transform="scale(5.01961 5.02143)" d="M82.867 133.266C82.7856 132.419 83.9444 131.561 84.5255 131.023C84.5659 133.812 84.4198 137.311 84.593 140L83.0842 140C82.9814 138.607 83.3128 133.965 82.867 133.266Z"/></svg>