<?xml version="1.0" encoding="utf-8" ?><svg xmlns="http://www.w3.org/2000/svg" xmlns:xlink="http://www.w3.org/1999/xlink" width="1024" height="256" viewBox="0 0 1024 256"><path fill="#DC241F" transform="scale(1.28 1.28)" d="M505.402 2.81158C529.626 3.07496 555.189 1.87659 579.246 4.05818C591.173 5.13974 594.227 21.7446 592.087 31.3001C590.4 38.8325 586.39 42.5712 580.193 46.6478C597.287 52.3233 589.845 70.6483 592.437 84.1276C593.647 82.6145 596.381 78.269 598.239 78.4716C598.263 78.5121 598.287 78.5527 598.312 78.5932C599.842 98.6445 571.531 103.231 562.709 85.7311C558.281 74.1644 561.781 60.9195 557.764 49.5737C557.113 47.7341 549.669 48.0207 547.906 48.0733C548.364 57.2194 547.8 66.8381 547.986 76.0312C548.083 80.813 548.006 85.9931 547.824 90.7669C550.607 90.8027 554.557 90.1305 555.556 93.1478C555.473 93.5171 555.392 94.3354 555.085 94.3803C544.69 95.8207 533.587 94.4865 522.997 94.6883C519.273 94.7592 507.75 96.2449 505.835 93.1959C505.722 91.9295 505.562 92.2704 506.22 91.4714C508.444 90.9045 512.094 91.0189 514.504 91.0075C514.221 81.8326 514.458 71.4761 514.454 62.1831L514.423 6.66583C511.72 6.74343 508.758 7.19231 506.458 5.96575C505.38 4.52856 505.675 4.73873 505.402 2.81158ZM548.09 44.649C552.462 44.4656 553.679 44.3553 557.758 42.6837C560.644 36.9418 559.651 25.8575 559.739 19.3926C559.94 4.55976 558.049 8.21569 547.679 6.34798C548.185 10.2614 548.007 16.3852 548.003 20.479C547.949 28.5358 547.978 36.5929 548.09 44.649Z"/><path fill="#DC241F" transform="scale(1.28 1.28)" d="M678.913 2.78843C689.284 2.77418 708.257 2.7724 719.038 3.01045C719.573 3.02226 719.775 3.86182 719.941 4.34408C719.18 7.64708 713.299 6.71661 710.518 6.54373L710.619 90.8391C713.666 90.7255 718.096 89.9226 720.058 92.7527C719.999 94.5878 718.173 94.742 716.578 94.7906C704.284 95.1472 691.929 94.956 679.627 94.8519C676.352 94.8241 670.531 95.9737 668.297 93.5123C668.242 92.2601 668.108 92.6677 668.688 91.6496C670.63 90.5593 675.773 90.9355 678.079 91.019C677.163 66.6828 678.488 42.2175 677.647 17.9017L677.56 17.2717C676.889 17.9203 654.945 87.6428 652.533 94.8518L645.311 94.9868C644.489 92.9478 643.84 90.6797 643.11 88.592C634.821 64.8952 627.885 40.5046 619.411 16.8992C619.749 28.9094 619.272 40.2017 619.437 52.8941C619.547 61.378 618.12 82.2498 626.295 88.7527C627.562 89.7604 631.253 90.8924 632.694 92.1063C633.599 92.8691 633.698 92.6381 633.889 93.8102C631.975 95.5307 607.083 95.6825 604.387 93.5105C603.388 90.7451 609.091 89.8835 610.395 88.1598C616.338 80.2988 615.675 67.0964 615.829 58.1235C616.037 49.2092 616.082 40.2917 615.964 31.3757C615.867 24.1922 616.511 13.145 613.773 6.76774C611.842 6.79507 605.699 7.0494 605.811 4.17912C606.719 3.1947 607.548 3.13519 608.842 2.86134C621.849 2.47711 636.258 2.87841 649.41 2.82682C650.625 7.93817 652.692 13.0803 654.344 18.0647C657.636 27.9945 661.624 38.1858 664.59 48.1906C669.315 33.7536 674.924 17.3025 678.913 2.78843Z"/><path fill="#DC241F" transform="scale(1.28 1.28)" d="M367.469 6.62548C365.939 6.67526 363.985 6.90886 362.688 6.18454C361.841 5.20272 362.001 5.65705 362.042 4.3684C362.903 3.04182 364.562 2.68818 366.074 2.74936C379.659 3.30046 393.361 2.38476 406.868 3.07706C407.744 3.12196 409.341 4.00477 409.82 4.81778L409.342 5.39137C405.753 6.97064 404.075 6.65762 400.147 6.57955C400.669 12.6264 400.169 29.4993 400.141 36.3649C400.082 54.5634 400.14 72.7621 400.315 90.9598C403.509 90.9046 408.059 90.452 410.211 93.2656C409.19 94.7041 406.709 94.7168 405.082 94.8338C393.936 95.1028 382.631 94.5998 371.467 94.8926C368.701 94.9651 363.583 95.5571 361.788 93.3425C361.906 92.0908 361.726 92.5387 362.576 91.5481C364.204 90.9386 365.853 91.0371 367.584 91.0327L367.565 48.7703C363.902 48.8994 358.327 48.5258 354.378 48.5152C354.831 62.1129 354.218 76.8354 354.632 90.9862C356.745 90.6365 359.181 90.8067 360.454 92.7672L360.238 93.4537C359.938 93.7066 359.606 93.9194 359.252 94.0867C358.322 94.5239 355.987 94.999 355.068 94.9766C348.531 94.817 315.216 95.1125 312.002 93.9611L311.565 92.9693C313.338 90.4657 318.557 90.8077 321.224 90.9478C320.787 82.3245 321.239 69.7067 321.27 60.7747C321.308 42.7071 321.246 24.6395 321.084 6.57256C318.331 6.63055 315.154 7.02053 312.799 5.67106C311.953 4.46819 312.123 4.99657 312.092 3.54397C313.008 2.83534 313.531 3.0077 314.828 2.88873C328.635 2.92537 342.817 2.71662 356.629 2.91594C358.078 2.93685 359.408 3.33368 360.319 4.47208L360.019 5.22191C358.058 6.77361 356.941 6.65563 354.479 6.38353C354.632 19.3349 354.397 32.3629 354.679 45.2746L367.663 45.2763C367.523 32.3932 367.458 19.5093 367.469 6.62548Z"/><path fill="#DC241F" transform="scale(1.28 1.28)" d="M217.487 2.85837C230.495 1.98503 245.507 3.3953 258.814 2.90929C267.552 2.59013 281.7 2.62673 289.887 3.89266C308.405 6.75601 308.795 40.7751 297.205 51.2837C288.715 59.3626 270.436 57.9861 259.795 57.8873L259.823 69.3359L259.893 91.0028C261.368 90.9426 262.845 90.9065 264.321 90.8944C266.236 90.8954 270.66 90.5783 270.549 93.0595C269.797 94.1997 268.31 94.7681 267.08 94.6546C261.192 94.1115 220.845 95.7334 218.055 94.0868C217.576 93.1033 217.63 93.5121 217.944 92.3877C219.632 90.4519 223.86 90.177 226.521 89.7403C226.752 62.0251 226.76 34.3086 226.545 6.59333C223.773 6.68339 220.74 7.15797 218.41 5.81022C217.438 4.46941 217.706 4.64563 217.487 2.85837ZM259.992 54.0094C262.905 54.0196 266.821 54.4866 268.944 52.4196C269.15 52.2179 269.345 52.0053 269.528 51.7826C272.305 46.8441 272.081 37.8934 271.987 32.1626C271.865 24.6881 272.827 15.7014 270.026 8.76672C268.785 5.6918 262.328 6.21354 259.704 6.21282C259.794 20.8531 259.179 39.786 259.992 54.0094Z"/><path fill="#DC241F" transform="scale(1.28 1.28)" d="M445.941 2.65568C451.109 3.49844 465.736 2.75802 471.911 2.79544L497.499 90.8104C499.372 90.951 500.821 90.7181 501.795 92.4097C501.52 93.7558 501.754 93.6855 500.84 94.4913C492.385 95.9375 466.567 94.3315 456.454 94.7066C455.68 94.7353 455.225 93.9101 454.862 93.3464C455.021 92.0806 454.831 92.5318 455.678 91.5325C457.941 90.3932 460.78 90.6985 463.266 90.8703C461.999 85.2876 459.832 78.3937 458.232 72.7904L456.376 66.5313C452.17 66.8143 434.013 66.9327 430.166 66.4924C429.524 71.0422 429.045 77.2828 430.203 81.5847C432.455 89.948 435.489 88.2853 442.007 91.6744C442.955 92.1674 443.144 92.6602 443.348 93.5459C441.983 95.4592 415.096 95.8662 413.501 93.5038C413.637 90.0257 420.356 84.1639 421.576 80.8806C430.795 56.0746 438.349 27.8491 445.941 2.65568ZM431.09 63.128C435.189 63.2167 439.288 63.2604 443.388 63.2591L455.491 63.2322C454.267 59.0371 444.136 22.3225 443.06 21.2815L435.2 48.9927C434.153 52.6722 432.366 59.6818 431.09 63.128Z"/><path fill="#DC241F" transform="scale(1.28 1.28)" d="M135.496 2.86428C152.133 2.3991 169.116 3.1141 185.774 2.91114C186.552 2.90166 187.457 4.06888 187.836 4.6573C187.647 7.63016 180.07 6.58431 177.728 6.38295L177.662 64.211C177.682 72.3702 178.117 83.0016 177.843 90.9076C178.495 90.8032 179.145 90.6867 179.793 90.5583C190.591 88.4289 200.321 81.7201 205.059 71.6106C206.146 69.291 207.55 60.5826 209.954 60.1383C210.762 61.1641 210.55 61.1765 210.705 62.5865C210.359 72.9329 210.601 84.4339 210.622 94.8674C200.624 94.7137 140.707 95.8239 136.72 94.3581C135.893 94.0541 135.417 93.6374 135.048 92.8437L135.371 92.1474C137.545 90.8131 141.986 90.9464 144.56 90.8978L144.516 6.57034C142.117 6.61346 137.086 7.13 135.536 5.31314C135.181 4.20191 135.183 3.9886 135.496 2.86428Z"/><path fill="#0092DC" transform="scale(1.28 1.28)" d="M733.583 14.2669C748.903 13.9575 764.672 14.2687 779.994 14.4997C780.246 37.1256 780.037 60.3944 780.009 83.0776L773.73 83.1213C768.439 83.1188 762.521 83.6474 757.304 83.5052C747.779 83.2456 738.788 83.081 729.255 83.2256C728.142 61.9902 728.901 35.8163 729.094 14.2819L733.583 14.2669Z"/><path transform="scale(1.28 1.28)" d="M646.785 131.416C648.614 131.31 650.447 131.26 652.279 131.266C660.245 131.257 668.123 131.604 674.104 137.628C685.944 149.553 685.39 176.593 673.562 188.223C672.913 188.792 672.241 189.34 671.519 189.814C666.268 193.264 652.143 195.286 646.112 193.96C645.218 193.763 644.028 193.349 643.553 192.516C641.747 189.356 642.167 137.422 643.46 131.978C644.16 131.375 645.78 131.463 646.785 131.416ZM649.598 186.997C657.1 187.252 663.611 187.684 669.514 182.227C669.641 182.109 669.763 181.987 669.881 181.859C675.094 174.293 676.465 164.372 674.756 155.494C671.684 139.54 663.269 138.392 649.576 138.474C649.547 154.714 649.306 170.725 649.598 186.997Z"/><path transform="scale(1.28 1.28)" d="M460.836 131.356C468.182 130.961 470.429 131.183 472.702 138.64C477.091 153.041 482.854 167.666 486.904 182.09C488.266 176.314 491.281 169.439 493.117 163.648C496.23 154.356 499.3 145.07 502.814 135.924C504.529 131.462 509.43 130.179 513.487 132.028C515.826 133.902 515.036 146.716 515.021 150.214L514.949 175.214C514.964 180.07 517.147 193.679 511.479 195.095C507.081 193.43 508.157 183.58 508.11 179.613C507.987 170.106 508.01 160.598 508.18 151.092C508.203 148.775 508.386 141.755 507.952 139.719C505.273 145.895 491.386 192.32 489.055 194.032C487.991 194.814 485.093 194.221 483.824 194.072C481.211 188.195 479.372 181.469 477.37 175.326C473.309 162.871 469.838 150.279 465.624 137.875C466.467 155.11 465.386 172.916 465.611 190.187C465.662 194.103 462.288 195.793 459.502 193.628C458.937 192.087 458.664 179.691 458.897 177.65C459.679 170.795 456.88 134.415 460.836 131.356Z"/><path transform="scale(1.28 1.28)" d="M259.957 131.476C274.55 130.418 291.854 132.082 287.464 153.136C286.554 157.498 282.686 161.498 278.802 163.606C282.599 167.947 293.266 189.975 289.896 193.744C288.328 194.518 286.216 194.355 284.434 194.356C282.907 190.355 281.74 187.043 280.457 182.946C277.088 172.184 276.308 166.491 263.562 166.475C263.658 175.376 263.714 185.304 263.322 194.136C261.069 194.415 258.676 194.926 256.972 193.283C255.713 187.312 255.907 137.814 257.18 132.195C258.135 131.391 258.536 131.602 259.957 131.476ZM278.101 156.522C279.46 154.558 280.082 153.768 280.421 151.315C282.197 138.475 273.538 138.582 263.599 138.571C263.555 145.497 263.55 152.424 263.582 159.35C268.976 159.511 273.6 159.991 278.101 156.522Z"/><path transform="scale(1.28 1.28)" d="M110.603 131.256C112.597 131.165 115.564 130.667 116.931 132.32C117.734 135.879 117.393 143.994 117.323 147.865C117.003 162.44 117.995 177.191 116.771 191.715C116.507 194.851 111.508 193.797 109.652 193.35C107.59 192.123 106.588 190.397 105.665 188.228C98.9918 172.539 90.3951 156.844 84.9747 140.723C84.428 157.507 85.2164 174.877 84.8887 191.717C84.873 192.523 84.5391 193.152 84.0492 193.767C82.2846 194.925 80.0462 194.755 78.5716 193.256C77.7536 187.924 77.4129 136.481 78.671 132.659C79.4781 131.63 80.398 131.61 81.6905 131.367C84.9588 131.316 87.4359 131.55 89.1661 134.617C97.2582 148.963 102.105 166.148 110.107 180.43C111.019 164.344 109.614 147.655 110.603 131.256Z"/><path transform="scale(1.28 1.28)" d="M341.221 130.982C344.147 130.936 345.95 131.031 348.867 131.317C350.11 134.823 351.25 138.395 352.227 141.984C356.983 159.467 363.046 176.567 367.453 194.139C365.62 194.379 362.164 194.358 360.177 194.394C358.373 188.797 356.718 183.154 355.213 177.47L349.316 177.425L333.871 177.402C332.793 181.6 331.101 189.845 328.843 193.67C328.6 194.081 327.568 194.367 327.091 194.367C326.13 194.366 323.79 194.315 323.091 193.631C322.828 193.374 322.707 192.746 322.742 192.529C323.928 185.199 339.464 132.947 341.221 130.982ZM335.68 170.896L345.961 171.026L353.475 170.885C350.187 161.387 347.895 150.624 344.626 140.891C343.361 143.245 342.2 148.198 341.388 150.911C339.49 157.254 337.871 164.673 335.68 170.896Z"/><path transform="scale(1.28 1.28)" d="M180.546 130.634C186.938 130.796 199.89 133.671 197.249 142.517C196.71 144.321 185.043 138.314 182.595 138.12C154.76 135.914 155.741 193.715 184.833 186.734C186.62 186.305 188.718 185.499 190.54 184.814C190.45 178.923 190.398 173.031 190.384 167.139C185.898 167.058 181.414 166.951 176.929 166.817C176.849 164.436 176.939 162.754 177.093 160.389C183.242 159.175 190.897 159.614 197.009 160.794C197.943 167.184 197.418 182.894 197.242 189.432C193.082 192.904 188.117 194.433 182.788 194.823C153.069 197.022 148.066 156.34 163.265 138.447C167.545 133.409 174.098 130.969 180.546 130.634Z"/><path transform="scale(1.28 1.28)" d="M219.113 131.462C225.272 131.254 231.289 131.256 237.449 131.506C242.846 131.726 241.846 134.107 241.409 138.578C234.372 138.779 227.332 138.808 220.294 138.665C220.142 144.902 220.15 151.142 220.319 157.378C223.987 157.598 234.508 156.852 238.282 158.113C239.327 158.462 239.062 162.964 239.025 164.483C232.789 164.83 226.54 164.848 220.302 164.536L220.299 181.693L220.311 186.807C224.159 186.748 239.923 185.722 242.056 188.294C242.224 189.465 242.164 193.071 240.836 193.231C235.073 193.924 219.886 194.806 214.714 193.543C211.751 190.381 213.65 141.706 213.476 133.595C213.465 133.103 213.693 132.466 213.964 132.033C215.379 131.299 217.473 131.464 219.113 131.462Z"/><path transform="scale(1.28 1.28)" d="M605.385 131.428C612.655 131.174 620.446 131.461 627.758 131.61C627.81 133.777 627.703 136.371 627.661 138.568C620.696 138.725 613.33 138.611 606.334 138.617C606.299 144.905 606.304 151.193 606.348 157.482L625.026 157.608C625.194 159.73 625.065 162.352 625.02 164.514L606.309 164.54L606.319 181.813L606.3 187.048C613.526 186.504 620.789 186.696 627.977 187.622C628.07 189.473 627.961 191.753 627.921 193.637C619.927 193.89 607.944 194.112 600.134 193.28C599.27 187.72 599.363 177.59 599.276 171.516C599.154 163.07 599.18 154.623 599.355 146.177C599.431 141.74 599.4 135.858 599.969 131.628L605.385 131.428Z"/><path transform="scale(1.28 1.28)" d="M551.311 131.463C554.895 131.31 586.34 130.972 588.025 132.093C589.054 133.726 588.979 136.334 587.717 137.812C584.526 139.04 576.464 138.652 572.733 138.637C572.757 151.915 572.982 165.772 572.701 179.007C572.769 183.235 573.183 187.6 572.493 191.75C572.001 194.704 568.509 195.168 566.74 193.474C565.381 188.917 565.967 146.374 566.017 138.638C562.416 138.554 552.814 139.652 550.612 137.117C550.075 135.703 550.024 133.221 550.569 131.788L551.311 131.463Z"/><path transform="scale(1.28 1.28)" d="M397.645 131.238C399.453 131.136 402.201 130.83 403.699 131.894C404.888 134.849 404.311 179.718 404.309 186.418C408.495 186.365 412.68 186.333 416.866 186.324C424.719 186.367 424.553 186.177 424.186 193.707C416.06 193.82 406.249 194.116 398.293 193.298C396.853 187.833 397.263 170.59 397.314 164.007C397.391 154.06 396.902 140.933 397.645 131.238Z"/><path transform="scale(1.28 1.28)" d="M305.655 130.956C307.89 131.037 309.026 131.203 311.181 131.58C311.543 136.824 311.315 145.299 311.333 150.743L311.314 187.158C311.293 189.724 311.733 192.875 310.067 194.514C308.314 194.454 306.228 194.246 304.45 194.118C303.124 178.368 304.903 160.088 304.225 144.135C304.115 141.548 303.927 132.213 305.655 130.956Z"/><path transform="scale(1.28 1.28)" d="M134.735 131.234C137.179 131.145 139.022 130.731 140.808 132.29C141.512 136.351 141.177 152.295 141.044 157.329C140.771 167.643 142.052 184.841 140.597 194.345C138.886 194.683 136.033 194.822 134.702 193.492C133.341 188.526 134.014 137.502 134.735 131.234Z"/><path transform="scale(1.28 1.28)" d="M532.476 131.197C534.336 131.052 536.84 131.194 538.751 131.248C539.372 136.861 539 147.927 539.037 154.012C539.096 161.867 539.105 169.723 539.064 177.578C539.043 182.983 539.169 188.958 538.452 194.272C536.619 194.395 534.338 194.71 532.83 193.601C531.85 191.606 532.083 137.206 532.476 131.197Z"/><path transform="scale(1.28 1.28)" d="M435.405 131.194L441.732 131.271C442.075 152.244 441.943 173.221 441.338 194.188L435.251 194.262C434.492 178.896 435.393 162.966 435.057 147.546C434.943 142.292 435 136.424 435.405 131.194Z"/><path fill="#DC241F" transform="scale(1.28 1.28)" d="M79.4546 0L92.0011 0C96.3885 1.47602 100.552 1.92135 105.037 3.93648C114.91 8.37187 122.909 18.4233 125.859 28.7216C132.625 52.3442 127.686 85.2609 101.717 94.8888C79.8255 102.67 55.6581 93.2244 47.4181 70.6001C39.2579 48.1951 43.2876 13.9245 68.3352 3.64538C71.8153 2.2172 75.8365 1.34837 79.4546 0ZM88.1983 92.9558C90.1531 91.4836 91.7347 90.1396 91.9994 87.5763C92.3904 83.7917 92.3816 79.6274 92.4227 75.8259C92.4845 68.6868 92.5078 61.5473 92.4926 54.4079C92.4763 40.4323 92.6031 26.3934 92.1532 12.4313C92.0092 7.9628 91.3443 4.91586 86.3924 4.32581C85.8665 4.26661 85.3382 4.23168 84.8092 4.22114C81.8568 6.76538 80.8027 7.8528 80.6444 11.9092C80.147 24.8821 80.3284 37.9178 80.299 50.9064C80.2712 63.2022 79.8482 75.6711 80.8128 87.9201C81.1864 92.664 84.3379 93.0548 88.1983 92.9558Z"/><path fill="#0092DC" transform="scale(1.28 1.28)" d="M0 14.535L30.5723 14.4775L30.5079 53.5001C30.5245 63.2258 30.7582 73.3854 30.5871 83.059C20.7567 82.7181 9.91334 82.9112 0 82.9123L0 14.535Z"/></svg>