<?xml version="1.0" encoding="utf-8" ?><svg xmlns="http://www.w3.org/2000/svg" xmlns:xlink="http://www.w3.org/1999/xlink" width="1024" height="365" viewBox="0 0 1024 365"><path fill="#787677" transform="scale(2.7234 2.72388)" d="M164.042 49.9583C166.409 49.4614 169.731 49.5328 172.121 49.8294C173.379 53.3776 174.294 57.4 175.351 61.0341C177.963 70.0204 180.337 79.9237 183.76 88.5947C185.384 76.2053 188.732 62.2329 191.565 49.9055C194.036 49.6098 198.356 49.7172 200.932 49.7311C200.043 54.5077 198.595 60.0664 197.417 64.8028L190.905 92.3715C190.223 95.2136 189.569 99.1032 188.807 101.705C187.788 102.56 180.965 102.305 179.36 101.847C179.018 101.749 178.596 100.673 178.473 100.291C175.467 90.981 172.698 81.5925 169.665 72.2919C168.926 70.0269 168.15 67.7725 167.615 65.4485C165.895 72.9519 160.325 93.429 157.588 101.726C157.266 102.703 149.731 102.032 147.8 101.908C146.714 98.5554 145.879 94.1908 144.861 90.6555C141.034 77.3749 138.071 62.8393 134.085 49.7088C136.777 49.7707 138.726 49.766 141.43 49.6125C142.524 49.5175 143.81 49.659 144.919 49.746C145.274 52.5837 146.475 56.9529 147.088 59.8199C149.147 69.4421 151.968 78.8478 153.491 88.5807C157.201 75.7602 160.719 62.8846 164.042 49.9583Z"/><path fill="#787677" transform="scale(2.7234 2.72388)" d="M66.4537 48.5848C69.9676 48.0929 74.2972 49.0739 76.8211 51.6622C82.8153 57.8092 81.3642 68.4567 81.4892 76.3661C81.6249 84.9512 81.4099 93.4678 81.5327 102.009C77.8057 101.909 74.0761 101.967 70.354 102.183C70.1579 94.3518 70.4002 86.4967 70.2826 78.6843C70.1906 72.5768 71.1927 62.7713 67.2761 57.8917C59.0689 54.2515 53.6672 61.805 51.4895 68.7026C48.8714 77.1693 49.3593 92.8921 49.5596 102.175C45.9408 102.013 41.9522 102.057 38.3365 102.163C37.8987 84.897 38.7033 66.9192 38.1449 49.7117C41.9383 49.6991 45.7315 49.6601 49.5244 49.5948C49.5515 53.495 49.7495 59.4189 49.0905 63.1329C50.1963 60.99 51.435 58.9185 52.7994 56.9303C56.7676 51.1852 59.7348 49.806 66.4537 48.5848Z"/><path fill="#787677" transform="scale(2.7234 2.72388)" d="M245.671 48.5838C250.008 47.8192 257.596 48.9367 261.249 51.5967C267.698 56.2933 267.901 63.0645 269.093 70.1243C261.087 69.6053 249.87 69.9478 241.511 69.9207C245.933 62.9406 250.791 63.6703 258.173 64.0415C256.933 59.5588 256.227 55.395 251.245 53.3718C249.183 52.5199 246.863 52.5385 244.814 53.4235C233.806 58.0749 236.951 77.3589 240.649 85.9696C243.903 92.4745 248.81 97.0219 256.327 97.4729C260.514 97.724 263.766 96.7211 267.766 95.6602C268.02 97.5729 267.9 98.6573 267.664 100.515C257.75 104.058 246.395 105.28 237.171 99.0082C231.521 95.1667 227.784 88.4264 226.808 81.6872C225.637 73.5993 225.678 63.4491 230.521 56.409C234.325 51.0346 239.589 49.6208 245.671 48.5838Z"/><path fill="#787677" transform="scale(2.7234 2.72388)" d="M288.405 48.8263C293.557 48.2035 299.246 49.0904 304.154 50.6651C304.397 53.5985 304.304 56.7222 304.568 59.8966C299.345 56.3767 289.607 51.6397 284.43 57.5043C280.165 62.196 289.143 67.9536 292.954 69.7346C303.922 74.8601 312.901 85.3065 304.307 97.1652C300.943 101.807 294.694 102.702 289.159 103.174C282.745 103.347 279.536 102.66 273.54 100.987C273.39 97.7788 273.674 94.3729 273.511 90.9036C278.696 94.2269 284.064 97.2448 290.493 96.1948C293.26 95.743 298.465 92.8488 297.463 89.4922C295.238 83.135 287.688 80.609 282.388 76.9859C274.623 71.6779 270.442 64.0961 276.004 55.2541C278.636 51.0705 283.694 49.6604 288.405 48.8263Z"/><path fill="#787677" transform="scale(2.7234 2.72388)" d="M323.898 31.2441L324.273 31.27C324.593 31.7851 324.564 47.8516 324.596 49.929C327.251 49.611 331.685 49.7386 334.477 49.7395L334.503 55.3644C331.052 55.1328 327.677 55.5761 324.453 55.3377C324.783 63.1166 324.248 71.2588 324.482 79.0657C324.828 90.6628 322.263 99.3252 337.668 96.6438C337.645 98.4789 337.541 100.436 337.476 102.281L337.437 102.571C336.382 103.444 332.059 103.185 330.495 103.251C324.016 103.783 314.656 101.337 313.748 93.6338C313.12 88.2952 313.513 81.0464 313.519 75.5097L313.511 37.1651C316.922 35.1381 320.363 33.0366 323.898 31.2441Z"/><path fill="#787677" transform="scale(2.7234 2.72388)" d="M222.106 48.583L224.791 48.4911L224.762 52.5355C222.174 53.5726 219.769 53.791 217.579 55.9964C215.319 58.2733 214.485 62.0743 214.051 65.1816C213.335 70.3052 213.567 75.9757 213.588 81.1944L213.67 102.113C211.268 102.238 208.417 102.204 205.98 102.238L202.585 102.261C202.493 97.5365 202.485 92.6177 202.461 87.8418C202.413 77.9945 201.09 64.3399 207.168 56.0174C210.928 50.8688 216.171 49.4488 222.106 48.583Z"/><path fill="#B26216" transform="scale(2.7234 2.72388)" d="M100.871 49.5805C103.98 49.34 108.681 49.4918 111.922 49.5026L131.525 49.563C128.658 58.1047 124.235 59.9236 115.958 60.9716C106.942 61.381 94.1854 61.4415 85.0725 61.1145C87.2065 52.4817 93.208 50.7695 100.871 49.5805Z"/><path fill="#B26216" transform="scale(2.7234 2.72388)" d="M102.909 90.6069C112.142 90.2491 122.117 90.8641 131.392 90.5349C128.424 99.7952 123.241 101.019 114.678 102.198C111.294 102.403 87.7359 102.535 85.5738 101.882L85.3496 101.349C85.4499 100.482 85.6636 100.013 86.0518 99.2364C89.5669 92.2038 95.6498 91.0604 102.909 90.6069Z"/><path fill="#B26216" transform="scale(2.7234 2.72388)" d="M102.858 70.1085C109.323 69.8753 116.242 70.2703 122.758 70.1722C125.517 70.1306 128.861 70.3686 131.526 70.0209C128.322 78.9964 122.819 81.37 113.812 81.6353C104.755 81.9448 94.3464 81.5551 85.072 81.5487C88.1833 72.1928 93.9257 70.5586 102.858 70.1085Z"/></svg>