<?xml version="1.0" encoding="utf-8" ?><svg xmlns="http://www.w3.org/2000/svg" xmlns:xlink="http://www.w3.org/1999/xlink" width="1024" height="1024" viewBox="0 0 1024 1024"><path fill="#1C428C" transform="scale(2.56 2.56)" d="M203.973 131.228C208.311 132.794 221.537 140.892 225.802 143.802C229.001 145.761 232.264 147.813 235.508 149.679C243.507 154.79 252.455 159.794 260.637 164.77L299.874 188.883C309.385 194.622 320.245 200.895 329.417 207.013L251.892 246.783C237.277 254.469 222.52 261.881 207.627 269.013C204.687 270.448 201.504 272.45 198.745 273.735C192.289 270.207 185.229 265.76 178.816 261.98L142.154 240.244C133.636 235.088 125.546 229.869 116.714 225.151C115.074 224.381 113.897 223.967 112.481 222.815C103.04 217.068 93.8805 211.14 84.0674 205.925C80.6483 204.108 77.2227 201.475 73.6839 199.905C76.5793 198.565 80.084 196.335 82.9733 194.721C87.2828 192.357 91.6301 190.064 96.0138 187.841L167.856 150.233C179.925 143.874 191.606 137.017 203.973 131.228Z"/><path fill="#1C428C" transform="scale(2.56 2.56)" d="M203.973 131.228C208.311 132.794 221.537 140.892 225.802 143.802C225.22 144.273 225.055 144.776 224.723 145.452C217.554 143.438 210.879 143.691 203.844 146.166C188.616 151.523 174.593 161.518 164.992 174.551C161.686 179.038 158.806 183.771 155.615 188.288L153.641 187.46C154.019 182.479 154.278 178.28 154.265 173.255C151.32 173.247 148.089 173.17 145.181 173.409C142.877 179.035 141.588 184.65 139.67 190.317C137.183 197.663 133.164 204.712 129.091 211.173C124.96 217.723 121.103 217.951 114.562 220.624C113.778 220.944 112.997 222.087 112.481 222.815C103.04 217.068 93.8805 211.14 84.0674 205.925C80.6483 204.108 77.2227 201.475 73.6839 199.905C76.5793 198.565 80.084 196.335 82.9733 194.721C87.2828 192.357 91.6301 190.064 96.0138 187.841L167.856 150.233C179.925 143.874 191.606 137.017 203.973 131.228Z"/><path fill="#FEFEFE" transform="scale(2.56 2.56)" d="M224.723 145.452C225.055 144.776 225.22 144.273 225.802 143.802C229.001 145.761 232.264 147.813 235.508 149.679C234.795 150.42 234.419 150.85 233.828 151.699C236.874 155.823 239.516 160.004 238.993 165.239C238.632 168.844 234.743 173.292 231.369 172.222C223.576 169.75 231.012 153.415 220.299 151.601C209.675 149.802 197.912 153.472 189.069 159.265C177.692 167.272 168.555 179.98 161.021 191.501C158.556 195.271 154.77 199.466 154.089 203.835C153.516 207.513 153.786 211.989 154.192 215.702C155.131 215.766 156.313 215.811 157.225 215.938C157.715 208.41 160.021 202.417 165.659 197.134C169.938 193.125 175.405 194.223 180.722 194.065C182.981 194.011 185.959 192.259 187.931 193.95C188.283 194.727 188.501 195.14 188.095 196.026C184.873 203.05 181.75 208.033 181.302 215.979C183.848 215.983 186.394 215.948 188.939 215.875C189.806 209.191 191.198 198.464 196.603 193.967C199.365 191.669 203.148 193.596 201.541 198.281C199.995 202.79 197.961 206.863 196.52 211.371C195.998 213.295 195.939 215.231 198.072 215.982C201.504 215.682 205.719 207.098 207.046 204.048C205.814 201.804 203.987 198.989 204.833 196.333C206.123 192.285 211.93 193.465 213.217 196.891C214.338 200.058 212.192 203.437 211.359 206.449C208.951 210.83 207.815 213.152 204.406 216.932C200.405 220.211 198.807 220.673 193.504 220.187C189.175 219.79 178.882 221.327 175.701 218.759C174.835 217.243 175.308 215.12 175.684 213.446C173.64 215.59 170.777 219.046 167.819 219.79C164.261 220.685 160.195 219.988 156.536 220.064C152.194 220.121 147.861 220.231 143.526 220.232C143.485 213.863 143.524 207.907 144.214 201.536C143.639 201.799 142.59 203.782 142.19 204.454C137.696 212.005 131.889 220.29 123.434 223.673C121.188 224.571 119.083 224.827 116.714 225.151C115.074 224.381 113.897 223.967 112.481 222.815C112.997 222.087 113.778 220.944 114.562 220.624C121.103 217.951 124.96 217.723 129.091 211.173C133.164 204.712 137.183 197.663 139.67 190.317C141.588 184.65 142.877 179.035 145.181 173.409C148.089 173.17 151.32 173.247 154.265 173.255C154.278 178.28 154.019 182.479 153.641 187.46L155.615 188.288C158.806 183.771 161.686 179.038 164.992 174.551C174.593 161.518 188.616 151.523 203.844 146.166C210.879 143.691 217.554 143.438 224.723 145.452Z"/><path fill="#09070A" transform="scale(2.56 2.56)" d="M224.723 145.452C225.055 144.776 225.22 144.273 225.802 143.802C229.001 145.761 232.264 147.813 235.508 149.679C234.795 150.42 234.419 150.85 233.828 151.699C231.412 148.964 227.985 147.001 224.723 145.452Z"/><path fill="#4B5B48" transform="scale(2.56 2.56)" d="M153.641 187.46L155.615 188.288C154.493 190.183 153.337 192.059 152.148 193.914C152.756 191.617 153.213 189.798 153.641 187.46Z"/><path fill="#1C428C" transform="scale(2.56 2.56)" d="M175.584 198.226C176.715 198.244 177.346 198.281 178.137 199.128C179.903 203.32 170.724 213.075 167.257 215.557L166.623 215.684C162.618 214.7 166.165 207.725 167.499 205.727C169.654 202.499 172.266 200.177 175.584 198.226Z"/><path fill="#FEFEFE" transform="scale(2.56 2.56)" d="M291.393 189.421C293.076 190.508 294.261 191.263 295.816 192.555C294.733 194.672 293.77 196.604 292.508 198.627C297.845 204.572 298.333 208.413 294.263 215.204C295.607 215.876 297.112 216.705 297.923 218.012C298.121 219.664 295.926 219.899 294.654 220.007C288.107 220.563 282.293 220.289 275.816 219.393C272.352 218.914 265.622 222.565 262.125 218.96C261.125 218.042 260.705 215.954 260.554 214.647C257.306 217.877 254.902 220.473 250.1 220.343C245.533 220.219 235.23 219.062 231.841 222.639C228.33 226.344 227.778 233.03 221.812 235.148C219.642 234.683 215.878 233.9 216.766 230.718C217.698 227.38 221.927 223.843 224.408 221.479C223.563 220.746 222.726 220.453 221.705 219.996C217.244 220.831 212.526 219.469 207.958 220.147C207.358 220.236 206.21 220.267 205.687 219.981C205.379 219.245 205.522 219.351 205.741 218.386C205.052 217.899 205.245 217.978 204.845 217.084L204.406 216.932C207.815 213.152 208.951 210.83 211.359 206.449C211.231 207.257 210.933 208.08 211.218 208.679C212.068 208.494 211.689 208.675 212.369 208.07C214.539 202.162 217.177 197.671 223.173 194.948C224.485 194.343 225.879 193.936 227.31 193.74C230.199 193.364 239.771 193.463 242.514 193.949C241.054 198.969 236.019 211.655 233.648 216.515C236.068 216.372 241.091 216.304 243.173 215.943C243.438 213.028 243.656 210.18 244.688 207.46C246.994 201.368 251.638 195.445 258.289 193.988C260.865 193.424 262.508 193.987 265.069 194.117C267.025 194.217 272.33 192.32 273.689 193.865C273.894 197.765 269.683 205.283 268.468 209.328C267.545 212.401 267.481 212.954 267.293 216.177C271.092 216.053 273.094 216.184 275.862 212.923C278.766 209.502 283.423 204.794 285.335 200.81C286.095 199.226 286.284 195.039 286.335 193.368C287.74 191.401 289.08 190.3 291.393 189.421Z"/><path fill="#1E4B94" transform="scale(2.56 2.56)" d="M204.406 216.932C207.815 213.152 208.951 210.83 211.359 206.449C211.231 207.257 210.933 208.08 211.218 208.679C212.068 208.494 211.689 208.675 212.369 208.07C211.253 210.798 211.241 211.986 211.707 214.954C208.771 215.963 207.968 216.025 205.741 218.386C205.052 217.899 205.245 217.978 204.845 217.084L204.406 216.932Z"/><path fill="#272F46" transform="scale(2.56 2.56)" d="M221.705 219.996C225.05 218.116 226.118 216.827 228.841 214.129C227.604 216.763 226.497 219.383 224.408 221.479C223.563 220.746 222.726 220.453 221.705 219.996Z"/><path fill="#1C428C" transform="scale(2.56 2.56)" d="M228.894 198.521C229.974 198.438 231.014 198.409 231.953 198.938C232.222 199.417 232.455 199.959 232.227 200.531C230.06 205.979 226.523 211.863 221.579 215.103C217.68 216.266 217.521 213.722 218.581 210.82C220.473 205.645 223.898 200.984 228.894 198.521Z"/><path fill="#1C428C" transform="scale(2.56 2.56)" d="M261.744 198.29C262.965 198.206 263.427 197.968 264.253 198.882C264.611 200.335 264.214 201.446 263.576 202.746C261.131 207.72 258.434 212.091 253.597 214.998C250.213 215.349 250.452 212.679 251.351 210.317C253.395 204.947 256.476 200.756 261.744 198.29Z"/><path fill="#272F46" transform="scale(2.56 2.56)" d="M289.409 204.707C290.741 206.892 288.112 213.787 286.085 215.336C284.971 216.188 284.815 216.132 283.461 216.052C281.318 211.876 286.445 207.041 289.409 204.707Z"/></svg>