<?xml version="1.0" encoding="utf-8" ?><svg xmlns="http://www.w3.org/2000/svg" xmlns:xlink="http://www.w3.org/1999/xlink" width="1233" height="307" viewBox="0 0 1233 307"><path fill="#28B8F5" transform="scale(2.74 2.74107)" d="M223.96 3.96876C224.33 3.96791 224.721 3.97294 225.088 4.0118C225.704 4.07697 226.266 4.38874 226.648 4.87592C227.618 6.12992 227.194 8.51902 226.999 10.0224C228.765 9.02801 232.149 7.12247 233.693 9.12081C234.049 12.2856 229.539 14.1975 227.168 15.193C227.258 17.2884 227.255 18.9807 226.998 21.0563C230.051 19.5598 240.509 11.5292 243.246 13.9512C244.626 16.3546 241.269 17.9975 239.564 19.1822C235.628 21.9173 231.135 23.8873 227.046 26.3971L226.964 30.4174C228.578 29.3313 231.808 27.2351 233.67 28.5664C234.951 31.7323 229.372 34.3046 227.074 35.278C227.231 37.5777 227.265 39.895 226.958 42.182C234.908 37.2155 238.732 34.3011 236.867 46.8799C238.397 45.5209 240.487 44.2232 242.292 43.263C242.189 40.9254 241.987 35.7252 244.979 35.039C247.416 35.6399 247.058 39.162 246.934 41.0844L249.974 38.7379C250.172 35.6766 250.251 20.9739 252.076 19.5679C257.463 15.4193 255.08 34.1908 254.934 36.4049C256.473 35.3921 257.788 34.5264 259.496 33.8322C259.502 31.2834 259.091 25.3867 262.411 24.983C264.617 25.9125 264.263 29.3168 263.999 31.2054C265.575 30.1124 268.444 28.0907 270.306 29.5503C271.522 32.3487 267.499 34.282 265.477 35.3115C267.363 35.9365 271.542 37.5084 269.896 40.0884C267.156 41.8548 263.546 39.2315 261.553 37.366C259.832 38.7899 258.079 39.644 256.033 40.4906C259.041 41.5507 272.294 47.5968 270.311 51.5834C270.126 51.7541 269.633 52.15 269.43 52.1418C265.158 51.9682 255.571 45.3082 252.138 43.1259C251.011 43.6237 249.357 44.6407 248.239 45.2885C250.228 45.967 254.141 47.5213 252.832 50.2297C250.372 52.3667 246.37 49.3305 244.414 47.6892C242.247 48.8396 240.126 49.906 237.837 50.7994C238.189 50.9257 238.536 51.0683 238.875 51.2266C247.454 55.2891 249.206 58.0433 238.929 61.4945C240.612 62.3005 242.958 63.7376 244.559 64.7399C246.756 63.3787 251.041 60.6456 253.306 63.2229C253.937 65.7178 250.873 66.8003 249.057 67.5413L252.35 69.1108C257.485 66.4829 263.213 63.3514 268.661 61.4249C270.047 60.9351 270.861 61.295 271.567 62.5431C271.995 66.2768 259.657 70.8677 256.688 72.1242C258.585 72.8821 259.934 73.7141 261.677 74.7417C263.316 73.7568 270.514 69.7389 270.864 73.7432C270.192 75.629 267.96 76.654 266.252 77.476C268.203 78.3407 271.862 79.9808 269.98 82.635C267.683 83.9386 265.435 82.0226 263.764 80.5611C263.764 82.4246 263.718 86.6221 261.732 87.4793C258.708 87.0095 259.058 80.991 259.059 78.591C257.393 77.3907 255.762 76.4822 253.95 75.5315C254.082 76.2384 254.186 76.9503 254.261 77.6655C254.599 81.1002 255.048 90.1771 252.94 92.7469C250.914 93.7859 249.954 91.7062 249.823 89.9687C249.418 84.5977 249.346 78.708 249.78 73.3307C248.411 72.18 247.549 71.6222 246.025 70.6682C246.308 72.6762 246.723 77.2894 243.826 77.393C240.931 76.2421 241.513 70.8162 241.814 68.3591C240.017 67.4381 237.817 65.981 236.067 64.8869C236.991 76.2001 235.729 77.9252 226.78 70.7576C227.055 72.8817 227.013 75.4456 227.036 77.618C229.087 78.7444 234.518 81.2467 232.914 84.3276C230.947 85.7496 228.372 83.7034 226.903 82.4971C226.984 83.7099 226.993 85.1224 227.027 86.3538C231.964 89.4258 237.778 92.7804 242.111 96.7235C243.041 97.5706 243.262 98.4428 242.621 99.5787C239.574 101.801 230.068 93.8407 226.947 91.8276C227.029 93.6644 227.122 95.5006 227.225 97.3362C229.465 98.5288 234.375 100.995 233.046 104.111C231.114 105.625 228.427 103.451 226.982 102.226C227.047 104.169 227.111 105.334 226.835 107.245C226.25 108.154 225.498 108.767 224.403 108.777C222.213 107.677 222.699 103.699 222.888 101.705C222.638 101.919 222.383 102.13 222.126 102.337C220.573 103.579 217.85 105.263 216.315 103.167C215.723 100.14 220.532 98.0666 222.761 97.0678C222.36 94.6377 222.483 93.4226 222.981 91.0218C219.571 93.5037 214.756 95.742 211.07 97.9097C209.757 98.6819 207.743 99.2298 206.502 98.0154C205.704 95.9796 207.37 94.879 208.989 93.8275C213.394 90.9669 218.134 88.4881 222.738 85.949C222.725 84.373 222.787 83.4698 222.97 81.9024C222.59 82.1664 222.207 82.4261 221.822 82.6815C220.262 83.7114 217.326 85.3024 216.002 83.2007C215.45 80.0967 220.54 77.937 222.796 76.9291C222.418 74.0809 222.432 72.8638 223.052 70.0596C215.312 74.8066 210.904 77.9055 212.936 65.4155C211.503 66.4386 209.07 67.7669 207.491 68.6897C207.539 71.1492 207.568 76.2748 204.621 77.135C202.337 76.5775 202.789 72.771 202.966 70.9682C202.541 71.2701 200.016 72.9963 199.897 73.2685C198.292 76.9433 201.068 92.8027 196.156 93.2663C192.975 91.4903 194.385 78.904 195.252 75.7454C193.696 76.6344 192.122 77.4945 190.534 78.3251C190.395 80.6218 190.399 86.2316 188.367 87.4062C184.742 87.2245 186.273 82.9591 185.639 81.3296C185.291 81.3061 185.171 81.2494 184.761 81.6444C183.218 83.1314 178.615 84.2144 179.117 80.7178C179.298 79.4579 182.192 77.9785 183.558 77.3167C181.849 76.2782 178.752 74.3982 179.714 72.034C181.991 69.9254 186.351 73.1431 188.305 74.5113C190.084 73.1933 191.203 72.4872 193.242 71.6539C190.071 70.0275 178.423 64.7399 179.129 60.8193C181.793 58.2469 195.267 67.2354 197.633 69.1787C198.713 68.4601 199.975 67.8225 201.125 67.2071C199.254 66.2311 195.899 64.4531 196.677 61.9524C198.861 59.5591 203.548 63.0915 205.477 64.472C207.5 63.3168 209.184 62.1785 211.387 61.3779C209.556 60.3077 204.287 57.6318 203.632 55.7379C202.67 52.9542 209.622 51.7995 210.244 50.5355C208.657 49.4723 207.158 48.5097 205.717 47.2424C203.634 48.4412 198.297 51.8317 196.434 49.1131C195.981 47.0218 199.356 45.2698 200.952 44.5805L197.611 42.9558C195.22 43.9206 192.844 45.5596 190.505 46.5558C188.386 47.4581 179.449 53.2003 178.138 50.0351C178.459 45.7036 188.816 42.0958 192.463 40.6723C192.164 39.8918 189.366 37.986 188.575 37.4044C186.459 38.6482 180.956 41.9133 178.986 39.5103C178.529 37.2676 181.526 35.6548 183.175 34.7108C183.04 34.6331 182.906 34.5538 182.773 34.4728C176.183 30.4499 179.666 26.5814 185.545 30.8075C186.529 30.4128 185.616 25.71 188.337 24.9485C191.48 25.8191 190.587 31.083 190.515 33.6864C192.431 34.5813 193.785 35.338 195.613 36.4114C195.325 33.6172 194.22 19.4441 197.937 19.0481C198.382 19.2431 198.748 19.4668 199.08 19.8259C201.291 22.2136 200.248 35.6793 200.131 39.4594C201.482 40.0076 202.363 40.4635 203.646 41.1525C203.396 39.2889 203.034 35.1627 205.594 34.6926C208.859 34.9864 208.128 41.5447 207.992 43.7753C210.438 44.9119 212.052 45.7526 214.129 47.4652L214 46.6633C212.394 37.2728 213.813 34.098 222.506 40.8129C222.503 38.9288 222.634 36.7338 222.699 34.8271C220.745 33.6858 215.631 31.0425 216.831 28.1382C218.724 26.5229 221.483 28.3922 223.19 29.4754C222.923 28.3209 222.815 27.2997 222.677 26.1302C218.678 22.9524 210.218 18.9627 206.822 14.6843C206.475 14.2462 206.826 13.42 207.007 12.9449C209.742 10.0457 220.109 18.5425 222.882 20.5009C222.569 18.1453 222.619 17.7034 222.76 15.2785C221.581 14.6958 216.664 11.5664 216.504 10.6399C215.577 5.27286 221.457 8.77582 222.631 9.32664C222.568 7.26659 222.231 5.36994 223.96 3.96876ZM227.163 65.9886C228.14 66.6058 230.829 68.4089 231.773 68.6735C231.452 66.7673 231.514 64.5127 231.509 62.5559C230.307 61.8379 228.086 60.3938 226.944 59.8286C226.959 61.8836 227.033 63.9377 227.163 65.9886ZM227.006 47.0806C226.989 48.3706 226.89 50.4738 227.163 51.6576C227.298 51.7532 227.485 51.9201 227.624 51.9292C229.271 51.0079 230.898 50.0519 232.504 49.0619C232.533 48.2114 232.782 44.9895 232.358 44.5025L231.979 44.4977C230.366 45.3393 228.63 46.2902 227.006 47.0806ZM215.832 58.6413C217.079 57.8964 219.389 56.4595 220.694 55.9778C219.049 55.3562 216.063 53.443 215.2 53.2482C213.517 53.9573 211.85 54.7072 210.203 55.4971C212.177 56.494 213.932 57.5258 215.832 58.6413ZM239.266 56.6149C238.47 56.2234 234.059 53.8081 233.469 53.6693L229.147 56.1299C230.741 56.854 233.541 58.4842 234.859 58.8816C236.163 58.1838 237.947 57.1672 239.266 56.6149ZM222.763 46.2309C221.761 45.6309 218.975 43.7131 218.103 43.3809L218.383 49.501C219.93 50.4849 221.215 51.2932 222.837 52.1403C222.802 50.1964 222.736 48.1679 222.763 46.2309ZM217.84 67.7498C219.336 66.9237 221.38 65.6417 222.8 64.9311C222.75 63.9315 222.789 60.7764 222.268 60.2936L222.123 60.296C220.535 61.0844 218.932 61.9689 217.516 63.0447C217.349 64.3725 217.04 66.2227 217.208 67.495L217.594 67.7867L217.84 67.7498Z"/><path fill="#F59556" transform="scale(2.74 2.74107)" d="M371.149 28.2368C373.535 28.365 376.088 28.3117 378.48 28.2612C378.574 32.2745 378.962 42.8486 378.294 46.2851C379.949 45.0277 381.732 43.6717 383.657 42.872C403.792 34.51 420.484 59.4099 405.578 75.3327C402.753 78.2964 398.49 80.6137 394.459 81.3244C388.073 82.4503 383.304 79.774 378.278 76.296C378.464 77.487 378.491 79.3259 378.541 80.5866C376.148 80.4623 373.585 80.5246 371.19 80.5888C370.884 63.3753 371.585 45.3888 371.149 28.2368ZM392.723 74.051C399.795 73.0556 404.726 66.5233 403.746 59.4495C402.766 52.3756 396.244 47.4304 389.168 48.3954C382.07 49.3633 377.107 55.9091 378.09 63.0046C379.073 70.1 385.63 75.0495 392.723 74.051Z"/><path fill="#28B8F5" transform="scale(2.74 2.74107)" d="M157.178 28.8317C159.446 28.7292 161.768 28.774 164.042 28.7901C164.248 33.0484 164.157 38.3156 164.19 42.6291C164.233 55.4526 164.203 68.2763 164.1 81.0995C161.877 80.9369 159.262 80.9953 157.006 80.9921L157.029 76.7865C149.815 83.0158 140.86 83.4205 132.82 78.4585C127.467 74.5453 124.467 69.4833 124.235 62.9012C123.605 45.0874 143.558 34.5702 157.091 47.1314C157.022 46.7706 156.964 46.4074 156.92 46.0427C156.679 44.0832 156.46 29.7523 157.178 28.8317ZM145.384 74.8862C152.501 74.3089 157.825 68.1057 157.315 60.9832C156.806 53.8607 150.654 48.478 143.527 48.9192C136.303 49.3664 130.831 55.6205 131.347 62.84C131.863 70.0594 138.17 75.4714 145.384 74.8862Z"/><path fill="#28B8F5" transform="scale(2.74 2.74107)" d="M83.9415 41.8611C94.8946 40.5857 104.825 48.3858 106.181 59.3293C107.536 70.2728 99.809 80.2602 88.8757 81.6957C77.8288 83.1461 67.7148 75.3208 66.3452 64.2636C64.9755 53.2064 72.8746 43.1499 83.9415 41.8611ZM88.8771 74.5142C95.7926 73.0404 100.213 66.25 98.7611 59.3299C97.3097 52.4097 90.5336 47.9677 83.6088 49.3969C76.6523 50.8325 72.1856 57.6464 73.6437 64.5982C75.1018 71.55 81.93 75.9948 88.8771 74.5142Z"/><path fill="#F59556" transform="scale(2.74 2.74107)" d="M284.487 29.3452C287.187 29.2311 289.381 29.3006 292.078 29.4017C292.027 33.5355 292.021 37.6698 292.06 41.8038C292.085 44.1565 292.243 47.8205 292.056 50.0731C297.048 49.5455 302.617 49.9274 307.679 49.8193C309.534 49.7797 312.186 49.9006 313.977 49.6384C314.238 47.7748 314.019 45.6489 314.074 43.7653C314.205 39.2833 313.77 33.8284 314.005 29.4134C316.618 29.2637 319.359 29.4993 321.677 29.3403C321.379 39.2582 321.759 49.2798 321.626 59.2216C321.529 66.4398 321.929 73.3815 321.532 80.6417C319.178 80.6584 316.336 80.7474 314.019 80.6717L314.034 65.4648C314.035 63.2052 314.149 59.6068 313.985 57.4285C313.595 57.2597 313.488 57.1925 313.057 57.1962L312.958 57.1503C311.368 56.3981 293.842 56.4434 291.987 57.0337L292.038 80.511C289.499 80.7291 287.085 80.7012 284.548 80.7556L284.487 29.3452Z"/><path fill="#28B8F5" transform="scale(2.74 2.74107)" d="M39.3504 28.8457C49.0014 29.2216 56.5887 32.3476 62.2003 40.6206C60.9048 41.7929 57.9447 43.9522 56.483 45.0247C52.336 41.2479 51.3158 39.1521 45.1148 37.1519C40.0446 35.5442 34.5456 35.9952 29.8051 38.4074C14.7095 46.1649 16.4362 69.1754 32.8754 74.0091C39.1522 75.8547 44.7297 75.0267 50.4701 72.0382C52.7644 70.4979 54.4253 68.6963 56.4856 66.8629C58.0476 67.8398 60.9624 70.0939 62.2646 71.3303C55.9785 78.5071 50.1022 81.2965 40.6686 82.1908C26.1636 83.5658 12.9571 72.7505 11.7607 58.0916C11.1807 50.7715 13.5096 43.5178 18.2424 37.9034C24.0223 31.1232 30.9501 29.526 39.3504 28.8457Z"/><path fill="#F59556" transform="scale(2.74 2.74107)" d="M357.001 42.116C359.06 41.9686 361.014 42.2402 363.291 42.0446C363.368 44.1969 363.421 46.35 363.449 48.5035C363.619 61.7122 365.495 81.6635 346.923 81.6189C329.554 81.5772 329.358 68.6835 329.279 55.125C329.26 50.8025 329.274 46.4799 329.32 42.1576C331.593 42.2203 334.502 42.2212 336.74 42.1017C336.311 46.4236 336.286 64.2401 337.254 67.6897C337.893 69.9679 339.194 72.1858 341.315 73.3613C343.566 74.6093 347.15 74.6324 349.594 73.921C351.973 73.2283 353.747 71.5402 354.726 69.2821C356.766 64.5731 356.077 53.0716 355.923 47.6356C355.881 46.1607 355.492 43.5968 356.195 42.3065L357.001 42.116Z"/><path fill="#F59556" transform="scale(2.74 2.74107)" d="M424.56 41.2957C429.796 40.813 434.841 43.4453 437.995 47.5612C436.644 49.2262 435.019 50.8195 433.511 52.3567C433.339 52.1914 433.163 52.0313 432.981 51.8767C430.965 50.155 428.566 48.1612 425.754 48.4871C423.929 48.8063 421.711 49.2252 422.024 51.6102C422.319 54.5124 425.652 56.5303 428.134 57.7581C436.194 61.7465 441.367 68.8026 434.968 77.0727C432.873 79.7797 429.52 81.2718 426.052 81.5922C421.659 81.6066 417.836 79.5729 414.429 76.9371C411.739 74.8568 416.049 71.3426 417.641 69.6656C420.133 72.4686 421.801 73.8409 425.469 74.5672C427.425 73.985 431.716 71.3561 430.707 69.3523C427.516 63.0169 416.74 62.469 415.246 54.3575C414.029 47.7458 418.061 42.626 424.56 41.2957Z"/><path fill="#28B8F5" transform="scale(2.74 2.74107)" d="M112.661 28.8648C114.842 28.7755 116.476 28.781 118.657 28.8745C118.795 33.219 119.101 79.6813 118.415 80.7758C118.32 80.926 117.988 80.9521 117.812 80.9955L111.535 81.0628C111.408 77.8408 111.517 74.3153 111.536 71.075C111.615 57.2801 111.227 43.399 111.553 29.612C111.944 28.9238 111.763 29.1225 112.661 28.8648Z"/><path fill="#F59556" fill-opacity="0.98823529" transform="scale(2.74 2.74107)" d="M291.987 57.0337C293.842 56.4434 311.368 56.3981 312.958 57.1503L313.057 57.1962C310.997 57.4358 293.687 57.5348 291.987 57.0337Z"/><path fill="#060008" fill-opacity="0.015686275" transform="scale(2.74 2.74107)" d="M187.304 40.348C187.676 40.271 188.389 40.2539 188.753 40.4367C187.045 40.9217 186.442 41.0749 184.932 41.9881L183.837 42.403L183.625 42.2101C184.614 41.3413 186.019 40.6407 187.304 40.348Z"/></svg>