<?xml version="1.0" encoding="utf-8" ?><svg xmlns="http://www.w3.org/2000/svg" xmlns:xlink="http://www.w3.org/1999/xlink" width="668" height="382" viewBox="0 0 668 382"><path fill="#215C9D" transform="scale(0.497024 0.497396)" d="M381.437 55.9679C410.887 55.2627 443.229 55.8859 472.865 55.883L651.764 55.8495L750.32 55.81C774.138 55.8028 798.271 54.96 821.867 57.748C903.278 67.3024 977.529 108.908 1028.19 173.361C1082.32 242.127 1104.07 328.649 1093.66 415.174C1083.6 498.836 1040.86 575.122 974.781 627.385C928.141 664.248 871.683 686.561 812.448 691.54C799.877 692.518 784.561 692.217 771.874 692.23L710.238 692.253L648.484 692.252C640.027 692.249 623.017 692.687 615.583 691.792C612.373 689.02 607.099 683.224 603.98 680.037L583.396 659.245C557.65 633.318 531.237 606.186 504.932 580.937L682.823 581.019L748.918 581.038C782.976 581.038 803.248 582.678 837.029 573.872C870.386 564.937 900.821 547.418 925.303 523.059C965.095 483.551 987.523 429.822 987.632 373.741C988.058 318.325 966.236 265.055 927.057 225.871C900.128 198.756 866.078 179.817 828.842 171.241C802.131 165.111 775.597 166.634 748.285 166.637L668.949 166.664L381.394 166.687C381.629 129.781 381.644 92.8742 381.437 55.9679Z"/><path fill="#215C9D" transform="scale(0.497024 0.497396)" d="M381.414 226.479L672.151 226.436L749.525 226.334C769.565 226.309 794.048 225.192 813.175 229.108C840.368 234.793 865.33 248.24 885.039 267.822C943.428 325.84 943.723 420.64 885.498 478.934C866.887 497.604 843.532 510.835 817.954 517.199C794.556 522.979 754.119 521.08 728.609 521.077L611.297 521.107L504.343 521.186C507.212 517.322 514.405 510.484 518.063 506.838L542.901 482.097C566.889 458.209 591.134 433.107 615.327 409.613C624.948 408.648 650.102 409.294 660.804 409.296L750.046 409.406C764.656 409.459 781.862 410.554 795.987 408.198C811.294 405.645 822.117 388.568 822.227 373.772C822.325 363.574 818.325 353.765 811.126 346.544C803.61 338.981 795.334 336.305 784.875 336.145C772.514 335.957 760.141 336.074 747.777 336.084L663.181 336.127L381.39 336.045L381.414 226.479Z"/><path fill="#3AA048" transform="scale(0.497024 0.497396)" d="M383.487 409.138L536.194 409.009C531.1 414.476 525.301 420.188 519.917 425.43C478.186 466.06 438.12 509.281 396.071 549.482C419.444 571.421 445.588 600.113 468.511 623.245C485.256 639.981 501.911 656.808 518.475 673.723C522.056 677.393 533.191 688.028 535.255 691.592L534.644 692.333C484.403 692.721 434.159 692.704 383.918 692.284C380.832 689.872 372.518 681.024 369.271 677.729L339.496 647.509L242.703 549.646C277.706 515.655 311.688 479.997 346.541 445.856C355.18 437.394 374.737 416.045 383.487 409.138Z"/></svg>