<?xml version="1.0" encoding="utf-8" ?><svg xmlns="http://www.w3.org/2000/svg" xmlns:xlink="http://www.w3.org/1999/xlink" width="1024" height="1024" viewBox="0 0 1024 1024"><defs><linearGradient id="gradient_0" gradientUnits="userSpaceOnUse" x1="72.033142" y1="68.91259" x2="53.826008" y2="69.407692"><stop offset="0" stop-color="#6BCF49"/><stop offset="1" stop-color="#D2E64F"/></linearGradient></defs><path fill="url(#gradient_0)" transform="scale(6.82667 6.82667)" d="M57.0892 57.5991C57.9409 55.9392 59.1364 53.5354 60.4434 52.2642C61.3692 54.0705 64.3391 57.8284 65.6611 59.945C66.3732 58.5796 68.5949 55.7419 69.5497 54.5048L70.6735 53.0181C72.188 53.7443 73.6258 56.209 74.5792 57.6391C74.159 58.256 73.6705 59.0266 73.1743 59.5663C72.2747 60.7162 69.6451 63.8696 69.3867 65.1923C69.7032 65.8184 70.2216 66.9266 70.6059 67.4642C68.8089 68.3486 68.3978 70.4194 66.1645 71.8827L65.5718 71.6741C64.0253 72.8838 60.3682 83.9128 59.5511 86.3704C57.3571 86.2194 54.2934 86.9794 53.4329 84.8508C54.6285 83.2226 56.5289 78.0681 56.7326 76.0255C58.5517 72.8269 60.4928 68.4454 62.4288 64.9019C60.626 62.6835 58.676 59.947 57.0892 57.5991Z"/><path fill="#36B526" transform="scale(6.82667 6.82667)" d="M70.6735 53.0181C72.188 53.7443 73.6258 56.209 74.5792 57.6391C74.159 58.256 73.6705 59.0266 73.1743 59.5663C72.5865 58.9616 72.4102 58.2944 71.6928 57.7338C71.1424 56.2908 70.8067 55.41 69.5497 54.5048L70.6735 53.0181Z"/><path fill="#36B526" transform="scale(6.82667 6.82667)" d="M65.5718 71.6741C66.1845 69.9637 67.8729 66.1703 69.3867 65.1923C69.7032 65.8184 70.2216 66.9266 70.6059 67.4642C68.8089 68.3486 68.3978 70.4194 66.1645 71.8827L65.5718 71.6741Z"/><path fill="#59CA44" transform="scale(6.82667 6.82667)" d="M69.5497 54.5048C70.8067 55.41 71.1424 56.2908 71.6928 57.7338C71.0411 57.5973 70.2645 56.8806 68.8049 56.3052C68.4972 57.3763 66.7784 59.4039 65.7987 59.8828C65.7534 59.9046 65.7075 59.9254 65.6611 59.945C66.3732 58.5796 68.5949 55.7419 69.5497 54.5048Z"/><path fill="#59CA44" transform="scale(6.82667 6.82667)" d="M67.1019 40.1243C67.9166 41.1747 69.7418 42.9122 70.7545 44.042C72.1173 45.4987 73.5791 47.1225 74.9833 48.5167C75.6255 49.2671 78.211 52.086 78.5565 52.7555C80.1436 54.5157 82.6083 57.6329 83.6751 59.7223C85.5862 56.8525 87.1759 54.7777 89.5474 52.255C90.6314 53.9935 91.767 55.7094 92.6271 57.5734C91.44 59.7179 87.9418 63.4718 87.3636 65.1702C87.6099 65.6563 88.165 66.8261 88.4593 67.2102C88.1902 67.3045 87.8673 67.4176 87.4906 67.5496C86.3172 69.5009 86.0108 70.54 84.3277 72.1207L83.8308 71.4546L83.4924 71.495C80.8111 69.8461 83.0611 66.6782 80.2865 65.3068C79.1127 63.2397 76.5694 58.9373 74.5792 57.6391C73.6258 56.209 72.188 53.7443 70.6735 53.0181L70.7786 52.7906C70.5907 52.0586 69.3416 51.0608 68.6976 50.4378C67.196 49.1142 65.3204 47.1287 63.8699 45.6768C64.8479 43.6686 65.9159 42.0164 67.1019 40.1243Z"/><path fill="#C2DF50" transform="scale(6.82667 6.82667)" d="M67.1019 40.1243C67.9166 41.1747 69.7418 42.9122 70.7545 44.042C67.8912 46.6162 69.7819 48.8423 68.6976 50.4378C67.196 49.1142 65.3204 47.1287 63.8699 45.6768C64.8479 43.6686 65.9159 42.0164 67.1019 40.1243Z"/><path fill="#36B526" transform="scale(6.82667 6.82667)" d="M83.8308 71.4546C84.3474 69.6471 85.6924 66.1959 87.3636 65.1702C87.6099 65.6563 88.165 66.8261 88.4593 67.2102C88.1902 67.3045 87.8673 67.4176 87.4906 67.5496C86.3172 69.5009 86.0108 70.54 84.3277 72.1207L83.8308 71.4546Z"/><path fill="#92D749" transform="scale(6.82667 6.82667)" d="M80.2865 65.3068C83.0611 66.6782 80.8111 69.8461 83.4924 71.495C80.8236 76.301 79.3597 81.1839 77.7283 86.3681C75.6904 86.3495 72.6023 86.7814 71.3211 85.1168C71.2658 84.7089 70.8901 83.2799 70.7781 82.7588C69.3241 78.6893 68.2017 75.7482 66.1645 71.8827C68.3978 70.4194 68.8089 68.3486 70.6059 67.4642C71.9896 69.7615 73.197 72.2013 74.2728 74.6609C74.4214 75.0005 74.5041 75.3875 74.6945 75.7056C76.0834 73.9759 78.6879 67.8771 80.2865 65.3068Z"/><path fill="#59CA44" transform="scale(6.82667 6.82667)" d="M66.1645 71.8827C68.3978 70.4194 68.8089 68.3486 70.6059 67.4642C71.9896 69.7615 73.197 72.2013 74.2728 74.6609C74.4214 75.0005 74.5041 75.3875 74.6945 75.7056L74.7333 75.9261C71.6621 75.9163 72.3576 82.311 70.7781 82.7588C69.3241 78.6893 68.2017 75.7482 66.1645 71.8827Z"/><path fill="#36B526" transform="scale(6.82667 6.82667)" d="M70.7781 82.7588C72.3576 82.311 71.6621 75.9163 74.7333 75.9261C74.3616 78.1108 72.6823 83.4037 71.3211 85.1168C71.2658 84.7089 70.8901 83.2799 70.7781 82.7588Z"/><path fill="#92D749" transform="scale(6.82667 6.82667)" d="M97.4638 66.367C98.7964 68.3255 100.119 70.0911 100.999 72.2991C100.382 73.7981 98.192 78.4914 97.818 79.7063C97.1804 81.6157 96.4205 84.3338 95.7036 86.0921C94.0543 86.215 91.309 86.6054 89.8934 85.8453L89.533 85.363C87.929 80.1037 86.7385 77.0519 84.3277 72.1207C86.0108 70.54 86.3172 69.5009 87.4906 67.5496C87.8673 67.4176 88.1902 67.3045 88.4593 67.2102C89.6946 69.3164 92.015 73.2744 92.4225 75.7299C93.5315 75.1891 95.1094 71.22 95.7468 69.8388C96.3368 68.6904 96.9091 67.533 97.4638 66.367Z"/><path fill="#59CA44" transform="scale(6.82667 6.82667)" d="M88.4593 67.2102C89.6946 69.3164 92.015 73.2744 92.4225 75.7299C90.2371 77.4415 91.5166 82.4558 89.533 85.363C87.929 80.1037 86.7385 77.0519 84.3277 72.1207C86.0108 70.54 86.3172 69.5009 87.4906 67.5496C87.8673 67.4176 88.1902 67.3045 88.4593 67.2102Z"/><path fill="#59CA44" transform="scale(6.82667 6.82667)" d="M97.4638 66.367C98.7964 68.3255 100.119 70.0911 100.999 72.2991C100.382 73.7981 98.192 78.4914 97.818 79.7063C97.171 79.6565 97.3657 79.6778 96.7864 79.2573C95.1897 76.3719 97.936 72.1211 95.7468 69.8388C96.3368 68.6904 96.9091 67.533 97.4638 66.367Z"/><path fill="#434042" transform="scale(6.82667 6.82667)" d="M49.8453 96.3634C52.1889 93.9911 54.6046 90.9546 57.1907 88.8126C57.6806 88.4067 59.2705 88.2238 60.0228 88.3788L60.2232 88.7368C59.4427 90.5873 55.8044 93.8482 54.2096 95.4035C55.6011 96.6159 56.8385 98.2735 57.9323 99.7566C58.7586 100.705 60.9809 102.817 60.2292 104.006C57.503 104.481 53.7335 99.3066 52.5309 97.2377L50.0881 99.8214C50.0448 101.108 50.3033 103.093 49.139 103.729C48.4385 103.663 47.8891 103.685 47.375 103.201C47.082 101.458 46.836 89.2965 47.6019 88.1253C51.5267 89.0948 50.3078 93.1814 49.8453 96.3634Z"/><path fill="#434042" transform="scale(6.82667 6.82667)" d="M68.4754 88.3008C69.5605 88.2064 71.685 88.2112 72.6659 88.5995C73.708 89.0121 75.5193 90.4809 75.0445 91.7251C73.1486 92.8665 66.4123 88.8473 64.8916 93.3599C62.6512 100.008 67.3834 102.801 73.1766 100.104C73.846 99.8883 74.1148 100.025 74.6168 100.385C74.7484 100.899 74.9079 101.665 74.4842 102.049C67.7976 108.107 57.5118 99.6155 62.6131 91.6595C63.9788 89.5296 66.1188 88.763 68.4754 88.3008Z"/><path fill="#434042" transform="scale(6.82667 6.82667)" d="M82.8443 88.3099C85.1044 88.1047 89.9517 87.9889 90.2624 91.1667C89.8412 91.6533 89.0515 91.8094 88.3846 91.5684C81.3114 89.0118 75.8635 95.7635 82.2818 100.611C83.5311 101.554 85.5601 101.231 87.2371 100.68C88.4103 100.144 88.868 99.7423 90.0064 100.494C90.8528 104.398 80.0229 106.043 77.2196 99.2643C76.4022 97.2649 76.4087 95.0234 77.2378 93.0288C78.4236 90.2228 80.2736 89.3607 82.8443 88.3099Z"/><path fill="#92D749" transform="scale(6.82667 6.82667)" d="M50.6773 68.492C51.2415 67.6464 51.0143 67.694 51.8403 67.4557C53.5207 68.1121 54.9988 72.103 55.7616 73.842L55.9172 74.1992C56.1254 74.707 56.454 75.5889 56.7326 76.0255C56.5289 78.0681 54.6285 83.2226 53.4329 84.8508L53.1888 83.5149C52.7511 81.7217 51.6138 79.2572 50.8599 77.5402C50.4382 76.278 49.1762 73.8709 48.5349 72.5754C49.1852 71.1646 49.7758 69.7596 50.6773 68.492Z"/><path fill="#C2DF50" transform="scale(6.82667 6.82667)" d="M50.6773 68.492C51.2348 68.8262 51.5947 68.894 51.6816 69.5804C51.9836 71.966 51.6037 74.6286 51.314 76.9563L50.8599 77.5402C50.4382 76.278 49.1762 73.8709 48.5349 72.5754C49.1852 71.1646 49.7758 69.7596 50.6773 68.492Z"/><path fill="#36B526" transform="scale(6.82667 6.82667)" d="M55.9172 74.1992C56.1254 74.707 56.454 75.5889 56.7326 76.0255C56.5289 78.0681 54.6285 83.2226 53.4329 84.8508L53.1888 83.5149C54.5339 82.4049 54.3918 75.8803 55.9172 74.1992Z"/><path fill="#434042" transform="scale(6.82667 6.82667)" d="M93.483 88.4104C95.7633 88.3053 96.3696 88.5209 96.4175 90.9619C96.4814 94.2208 96.6483 97.9783 96.2919 101.194C98.4258 101.197 102.595 100.713 104.099 101.992C104.532 102.701 104.511 102.888 104.428 103.721C101.603 103.544 96.3863 103.766 93.3895 103.801C93.1333 98.816 93.3732 93.4088 93.483 88.4104Z"/><path fill="#59CA44" transform="scale(6.82667 6.82667)" d="M74.9833 48.5167C76.4511 46.1521 80.3507 42.4244 82.5388 40.4286C83.7406 42.2727 84.6605 43.6182 85.573 45.6193C83.3127 48.027 80.7104 50.398 78.5565 52.7555C78.211 52.086 75.6255 49.2671 74.9833 48.5167Z"/><path fill="#625C64" transform="scale(6.82667 6.82667)" d="M59.2175 107.831C59.7729 107.724 62.2346 107.769 62.8336 107.846C65.3748 108.17 74.31 106.855 75.55 108.961C74.8945 109.012 71.9952 108.609 70.8559 108.582C67.3699 108.499 63.8058 108.978 60.3907 108.511C59.5159 108.392 59.6353 108.424 59.2175 107.831Z"/><path fill="#625C64" fill-opacity="0.98431373" transform="scale(6.82667 6.82667)" d="M45.4303 108.344C47.106 108.22 56.7594 108.084 57.6868 108.736L57.4783 109.582C54.0136 108.271 47.3829 109.644 45.2685 108.751L45.4303 108.344Z"/><path fill="#625C64" fill-opacity="0.97254902" transform="scale(6.82667 6.82667)" d="M77.8296 107.962C79.4634 108.501 82.6204 108.168 84.5777 108.392L84.6632 108.837C83.3186 109.105 78.7324 109.541 77.8119 108.745L77.8296 107.962Z"/><path fill="#434042" fill-opacity="0.98823529" transform="scale(6.82667 6.82667)" d="M86.155 108.037C86.8129 108.007 88.6169 108.28 89.1833 108.653C89.6659 108.971 89.5514 109.074 89.6991 109.733C88.3909 109.14 86.3711 109.267 86.155 108.037Z"/><path fill="#434042" fill-opacity="0.98039216" transform="scale(6.82667 6.82667)" d="M100.502 107.305C101.909 107.419 103.264 107.22 103.912 108.548C102.693 108.407 100.907 108.52 100.502 107.305Z"/><path fill="#050006" fill-opacity="0.15686275" transform="scale(6.82667 6.82667)" d="M100.042 105.367C100.853 105.209 103.001 105.202 103.819 105.386L103.874 105.746C102.321 105.893 101.255 106.183 100.042 105.367Z"/></svg>