<?xml version="1.0" encoding="utf-8" ?><svg xmlns="http://www.w3.org/2000/svg" xmlns:xlink="http://www.w3.org/1999/xlink" width="1024" height="688" viewBox="0 0 1024 688"><path fill="#516DD7" transform="scale(3.73723 3.73913)" d="M137.771 74.5598C145.331 73.5281 152.304 78.7944 153.381 86.3474C154.457 93.9004 149.232 100.905 141.686 102.026C134.076 103.157 126.999 97.8784 125.914 90.2619C124.828 82.6453 130.148 75.6001 137.771 74.5598ZM137.242 93.8067C138.621 94.244 139.306 94.4928 140.774 94.4606C143.774 92.6312 144.047 91.6229 145.09 88.2955C144.177 84.9022 142.865 82.0235 138.792 81.9815C136.893 83.0595 135.425 84.3955 134.803 86.5826C134.317 88.2736 134.525 90.0885 135.38 91.6259C135.849 92.4505 136.57 93.1399 137.242 93.8067Z"/><path fill="#516DD7" transform="scale(3.73723 3.73913)" d="M79.9543 75.0796C88.1904 73.8208 94.2352 77.7704 95.4842 86.2538C95.6906 87.6557 95.81 88.7177 95.1826 90.0593C95.0265 90.1873 94.8373 90.3425 94.6149 90.5249C90.3228 90.6816 80.9099 90.6783 77.0977 90.4729C80.3221 95.5659 81.3058 96.8149 86.3245 92.297C88.6451 92.0905 91.7423 92.1472 94.0604 92.2933L94.6066 92.2939L94.9804 92.7203C95.011 96.1879 89.2579 101.229 85.9826 101.707C82.2023 102.26 77.7421 101.899 74.5219 99.6846C71.7702 97.8006 69.8968 94.8843 69.3272 91.5984C67.817 83.2515 71.3094 76.585 79.9543 75.0796ZM77.1881 85.4348C79.0617 85.4182 80.9355 85.4382 82.8083 85.495C84.3055 85.4894 85.8709 85.4582 87.3612 85.4829C86.7051 84.4915 85.5512 82.6392 84.8048 81.8219L81.3444 81.565C78.8994 82.0187 78.426 83.4498 77.1881 85.4348Z"/><path fill="#060708" fill-opacity="0.54509807" transform="scale(3.73723 3.73913)" d="M80.4632 83.1128C81.4245 83.0819 82.9181 82.781 83.6766 83.181L83.6836 83.7897C82.7406 83.7972 81.2968 83.8867 80.4433 83.6089L80.4632 83.1128Z"/><path fill="#516DD7" transform="scale(3.73723 3.73913)" d="M184.271 74.9414C184.24 74.9133 184.214 89.4071 185.266 92.5175C195.572 101.073 193.854 79.893 193.695 75.033C196.26 75.0283 199.948 75.1182 202.402 74.839C202.487 81.4131 202.502 87.988 202.449 94.5625C202.483 96.7771 202.357 99.4167 202.308 101.662C200.767 101.967 195.836 101.747 194.04 101.708C193.867 100.902 193.762 99.3286 193.682 98.4468C193.414 98.7612 193.138 99.0696 192.856 99.3717C191.222 101.11 189.02 101.911 186.616 102.009C174.984 102.485 174.917 89.1406 175.291 80.8436C175.378 78.9111 175.577 77.0562 175.522 75.0401C178.21 74.8496 181.347 75.138 184.271 74.9414Z"/><path fill="#516DD7" transform="scale(3.73723 3.73913)" d="M244.119 75.0092C246.576 75.0208 250.7 75.137 252.958 74.75C252.4 80.6769 253.051 88.5265 252.793 94.6632C252.699 96.9151 252.915 99.1891 252.639 101.483C251.562 102.262 246.429 101.847 244.903 101.724C243.818 100.879 244.196 99.7388 244.28 98.408C242.525 99.8882 241.251 101.012 239.056 101.591C231.456 103.595 225.773 97.9542 226.151 90.4207C226.177 89.9187 226.082 88.4514 226.001 87.9501C226.111 84.3494 226.362 78.4006 226.123 74.965C227.129 74.9762 234.082 74.9643 234.662 75.2186C234.709 78.2767 234.272 91.3279 236.165 93.1154C237.171 94.0648 238.614 94.7081 240.005 94.644C241.113 94.5929 241.825 93.9533 242.519 93.1591C242.857 92.7728 243.161 92.3637 243.474 91.9577C244.437 90.7085 244.277 77.4479 244.119 75.0092Z"/><path fill="#516DD7" transform="scale(3.73723 3.73913)" d="M110.65 74.5725C117.821 73.8175 122.134 79.089 124.071 85.2969C121.081 85.1613 118.089 85.0675 115.097 85.0156C114.071 83.8886 112.166 81.6218 110.891 81.8543C106.321 82.6872 104.521 90.2579 108.149 93.3659C112.017 96.68 112.674 93.2132 115.513 92.0199C116.83 91.4661 121.455 91.7692 122.812 91.8079C123.524 91.8866 123.354 91.7632 123.806 92.1951C123.668 93.339 123.004 94.8939 122.311 95.8025C110.848 110.832 90.5297 96.5215 100.019 80.237C102.152 76.5772 106.654 75.2939 110.65 74.5725Z"/><path fill="#516DD7" transform="scale(3.73723 3.73913)" d="M208.695 68.8007L217.429 68.7459C217.221 70.4632 216.674 73.5936 217.851 74.8399C219.088 75.3571 221.18 74.9736 222.567 74.8306C222.488 77.2969 222.572 79.7854 222.626 82.2536C220.753 82.2531 218.88 82.2183 217.008 82.1494C217.593 85.1673 216.518 91.9654 218.251 94.0078C220.917 95.6241 223.181 90.5254 222.668 99.6856C222.563 100.806 222.68 101.036 222.03 101.744C220.812 102.253 219.413 102.317 218.14 102.038C213.856 101.097 211.826 100.807 209.28 97.2688C208.699 92.1081 208.326 87.615 208.641 82.397C208.107 82.1585 206.238 82.3389 205.533 82.377C205.5 80.2457 205.005 76.7532 206.222 75.3222C206.965 74.8247 208.022 75.0812 208.951 75.183C208.787 73.9004 208.572 70.0125 208.695 68.8007Z"/><path fill="#516DD7" transform="scale(3.73723 3.73913)" d="M158.344 68.7481C161.037 68.8517 164.296 68.7379 167.03 68.711C166.879 71.0497 166.937 72.5729 167.049 74.9085L172.19 74.9131C172.144 77.091 171.976 80.1696 172.36 82.2212C170.46 82.2811 168.558 82.2239 166.665 82.0501C166.95 85.2917 166.84 90.2825 167.056 93.8954C169.102 94.2659 170.101 94.2976 172.151 94.3068C172.008 96.0489 172.029 98.2818 171.995 100.062C172.028 100.886 172.067 101.257 171.428 101.74C169.251 101.927 165.269 101.281 163.517 100.726C155.959 98.2705 158.52 88.35 158.391 82.5057C158.384 82.2126 153.418 83.7443 155.56 75.3021C156.175 74.8308 157.229 75.2091 158.309 75.0489C158.547 74.3385 158.345 69.9922 158.344 68.7481Z"/><path fill="#DEDBDF" fill-opacity="0.97254902" transform="scale(3.73723 3.73913)" d="M193.29 110.878C194.768 110.621 195.725 111.013 196.806 110.844C197.125 110.794 197.903 109.32 199.209 108.992C204.588 113.563 203.673 109.633 205.703 109.104L205.966 109.732L205.514 109.688C205.03 110.451 205.215 115.206 205.333 116.345L205.749 116.281C206.414 115.144 206.09 111.161 205.966 109.732C206.365 110.874 206.123 110.801 206.947 111.2C209.332 111.013 210.294 110.725 212.744 110.796L212.143 110.998L212.088 111.401C212.738 111.965 213.098 112.215 213.825 112.683C213.899 113.632 213.997 115.539 214.157 116.399L214.817 116.076C215.466 113.937 214.484 112.025 212.744 110.796C216.784 112.084 216.563 110.43 221.115 110.941C221.879 111.472 222.816 112.037 222.999 113.125C223.396 115.494 220.097 121.306 217.228 119.683C216.581 119.317 215.905 117.492 215.321 116.935C214.574 116.323 214.076 116.934 213.46 115.891C213.461 114.926 213.607 113.536 213.076 112.81L212.507 112.567C210.787 113.299 212.458 118.219 208.24 116.714C208.888 115.83 208.553 112.01 208.3 110.881C207.147 112.205 207.445 115.256 208.24 116.714C207.794 116.344 207.595 116.12 207.011 116.023C204.792 117.166 201.719 116.982 199.254 116.919C196.275 116.843 193.074 117.058 190.179 116.341C189.523 116.179 189.101 114.26 188.95 113.653C187.229 113.891 188.166 115.268 187.046 116.347C186.117 116.466 181.683 117.178 180.931 116.8C180.749 116.709 180.333 115.628 179.562 115.474C179.261 115.784 179.241 116.276 179.128 116.766C178.122 117.693 174.225 117.273 173.117 116.536C172.653 115.799 172.677 116.08 172.817 115.34C173.923 114.268 176.669 115.228 178.635 114.846C179.7 113.697 178.69 113.456 179.818 111.55C179.22 114.789 180.556 118.664 184.337 115.882L184.291 115.472C183.332 115.047 182.813 116.102 181.494 115.829C180.783 115.243 180.963 115.536 180.732 114.676C181.572 113.19 183.177 113.975 184.549 113.186L184.524 112.694C183.879 111.673 183.63 111.513 182.665 110.842C184.962 110.797 187.611 110.485 189.857 110.791C190.307 110.852 191.044 111.648 191.411 111.911C191.8 112.095 192.614 111.12 193.29 110.878C193.222 110.948 193.154 111.017 193.088 111.088C191.862 112.397 191.478 114.59 192.889 115.876C193.88 116.779 194.981 116.563 196.192 116.462L196.706 116.188C197.726 114.728 197.477 113.356 196.399 112.012C195.525 110.921 194.584 110.99 193.29 110.878ZM216.393 118.197C220.181 122.868 225.688 110.529 217.458 110.982C216.303 111.814 215.257 113.733 216.154 115.104C217.169 116.655 220.196 116.072 220.479 117.115C220.04 117.953 220.291 117.698 219.482 118.16C218.237 118.28 217.758 117.992 216.561 117.718L216.393 118.197Z"/><path fill="#060708" transform="scale(3.73723 3.73913)" d="M217.458 110.982C225.688 110.529 220.181 122.868 216.393 118.197L216.561 117.718C217.758 117.992 218.237 118.28 219.482 118.16C220.291 117.698 220.04 117.953 220.479 117.115C220.196 116.072 217.169 116.655 216.154 115.104C215.257 113.733 216.303 111.814 217.458 110.982ZM220.314 112.969C218.966 113.4 219.974 114.384 217.638 113.477L217.382 113.175C217.846 112.645 218.885 112.407 219.591 112.177C218.876 112.048 218.404 111.941 217.676 111.963C216.589 113.957 217.015 116.423 219.382 115.499C219.812 115.334 220.159 115.006 220.347 114.586C220.579 114.067 220.432 113.511 220.314 112.969Z"/><path fill="#DEDBDF" fill-opacity="0.96470588" transform="scale(3.73723 3.73913)" d="M217.676 111.963C218.404 111.941 218.876 112.048 219.591 112.177C218.885 112.407 217.846 112.645 217.382 113.175L217.638 113.477C219.974 114.384 218.966 113.4 220.314 112.969C220.432 113.511 220.579 114.067 220.347 114.586C220.159 115.006 219.812 115.334 219.382 115.499C217.015 116.423 216.589 113.957 217.676 111.963Z"/><path fill="#060708" transform="scale(3.73723 3.73913)" d="M198.796 109.099C199.217 109.213 199.228 109.274 199.508 109.637C199.371 110.165 199.326 110.311 199.319 110.872C200.481 111.799 202.626 111.241 203.92 112.424C204.348 113.592 203.743 114.874 203.284 115.99C197.661 118.95 198.308 112.495 198.796 109.099Z"/><path fill="#060708" transform="scale(3.73723 3.73913)" d="M186.129 111.047C187.288 110.953 188.095 110.835 189.247 111.05C190.749 111.993 191.276 114.416 190.502 115.881C190.022 115.399 189.884 113.372 189.793 112.582C189.017 111.781 188.613 111.441 187.558 111.861C186.85 112.865 187.022 114.562 186.591 116.002C185.957 115.346 186.122 112.105 186.129 111.047Z"/><path fill="#060708" transform="scale(3.73723 3.73913)" d="M210.219 110.892C210.486 111.049 210.663 111.335 210.852 111.589C211.094 113.008 211.152 115.207 210.739 116.577C209.657 115.67 209.999 112.198 210.219 110.892Z"/><path fill="#A2E010" transform="scale(3.73723 3.73913)" d="M26.2107 84.143C28.4249 77.4433 36.2197 74.5869 42.0002 79.1023C43.267 80.0919 44.1968 81.6262 45.0363 82.9874C45.5825 83.8293 45.6006 84.1367 46.6136 84.3528C49.3398 84.9342 58.3906 83.7665 60.2711 85.3001L60.1934 85.6593C59.5737 86.0085 58.8918 86.1849 58.1788 86.1948C45.3261 86.3722 32.4538 86.4206 19.6013 86.2572C17.4182 86.2294 13.9023 86.4173 11.9385 85.6286L11.8492 85.4546L12.3085 85.2155L12.2622 85.6293L12.5214 85.1523C16.5442 84.197 24.622 84.8363 26.2107 84.143Z"/><path fill="#B2F03D" transform="scale(3.73723 3.73913)" d="M45.0363 82.9874C45.5825 83.8293 45.6006 84.1367 46.6136 84.3528C49.3398 84.9342 58.3906 83.7665 60.2711 85.3001L60.1934 85.6593C59.5737 86.0085 58.8918 86.1849 58.1788 86.1948C45.3261 86.3722 32.4538 86.4206 19.6013 86.2572C17.4182 86.2294 13.9023 86.4173 11.9385 85.6286L11.8492 85.4546L12.3085 85.2155L12.2622 85.6293L12.5214 85.1523C16.5442 84.197 24.622 84.8363 26.2107 84.143C26.3004 84.8449 26.3425 84.9693 26.6184 85.6224C27.8257 86.1562 43.1164 85.9682 45.0712 85.6947C45.3615 85.0591 45.1083 83.808 45.0363 82.9874Z"/><path fill="#516DD7" transform="scale(3.73723 3.73913)" d="M34.732 89.001C36.2384 89.0229 37.0528 88.8514 38.1751 89.8189C38.4522 90.398 38.4721 90.4818 38.5395 91.1214C39.09 91.622 39.7511 91.6761 40.4915 91.6741C41.4056 91.7728 42.1017 92.3504 42.8674 92.8696C44.1127 92.3425 46.1757 91.1945 47.3562 91.5616C47.9485 92.109 47.8121 91.8222 47.8607 92.6357C47.465 93.4175 46.7152 93.8702 46.0052 94.3942C46.5873 95.3813 47.7775 95.5233 48.2707 96.6665L48.1089 97.1746C46.4609 98.0231 45.3851 96.4024 44.4195 96.7548C44.1767 97.6376 44.0186 98.5211 43.4122 99.2005L43.0139 99.1536C41.8044 97.3592 42.2967 96.4501 41.6453 94.8256C39.8189 93.7961 38.5557 93.0068 36.8255 91.8218C36.8454 93.3612 36.7474 96.0529 37.0403 97.4416C38.05 98.3275 40.2043 99.9065 40.2066 101.268C39.3018 101.911 38.0621 101.151 37.2287 100.633C36.9938 100.712 36.7876 100.745 36.6387 100.932C36.8124 102.183 36.7515 102.982 36.2957 104.146L35.8561 104.291C34.6896 103.319 34.8201 101.56 34.7747 100.18C33.7295 100.742 33.3974 101.858 32.0507 101.208C31.9914 99.7348 33.6348 98.4814 34.6477 97.5483C35.0425 95.4015 34.9391 94.1744 34.7311 92.005C33.0676 93.0372 31.5461 93.9968 29.7989 94.8951C29.7272 96.4505 29.7504 98.5151 28.1386 99.1595L27.6275 98.8697C27.1743 97.7805 27.3599 97.8938 27.536 96.6411C26.7672 96.0104 25.1598 97.7321 23.4214 97.4296L23.2439 97.062C23.6561 95.6749 24.6759 95.3193 25.9501 94.5688C24.9095 93.7296 23.8473 93.2807 24.0383 91.8961L24.5005 91.6631C25.7153 91.685 27.1983 92.2879 28.3811 92.697C29.4443 92.5814 31.8275 91.2795 32.7505 90.6196C33.2327 89.8536 33.8162 89.179 34.732 89.001Z"/><path fill="#6083EC" transform="scale(3.73723 3.73913)" d="M12.9458 88.8869C19.2475 88.5915 28.5454 88.5756 34.848 88.776C39.9239 88.7187 45.0002 88.6977 50.0764 88.7132C51.6967 88.7183 56.3306 88.6724 57.7601 88.975C58.9382 88.9865 59.6012 88.9166 60.6761 89.4231L60.7931 89.7606C59.1097 90.7581 49.2619 90.734 47.0968 90.428L39.6148 90.5589C39.7101 91.0584 40.0962 91.3107 40.4915 91.6741C39.7511 91.6761 39.09 91.622 38.5395 91.1214C38.4721 90.4818 38.4522 90.398 38.1751 89.8189C37.0528 88.8514 36.2384 89.0229 34.732 89.001C33.8162 89.179 33.2327 89.8536 32.7505 90.6196C32.0571 90.4355 29.4289 90.573 28.4992 90.5779C23.0335 90.6067 17.6093 90.3422 12.1496 90.1845C11.474 89.8924 11.6139 90.0612 11.2387 89.503C11.5862 89.0471 12.3562 88.995 12.9458 88.8869Z"/><path fill="#7B94E4" transform="scale(3.73723 3.73913)" d="M12.1496 90.1845C11.474 89.8924 11.6139 90.0612 11.2387 89.503C11.5862 89.0471 12.3562 88.995 12.9458 88.8869C13.5497 89.0327 15.2347 89.3119 15.4943 89.6377C14.9052 89.9188 12.8391 90.1632 12.1496 90.1845Z"/><path fill="#060708" transform="scale(3.73723 3.73913)" d="M253.24 108.923C254.349 109.145 254.295 109.998 254.683 110.34C255.848 111.364 256.939 110.817 258.017 111.916C258.376 112.944 258.709 115.617 257.644 116.25C256.623 115.618 256.999 113.144 255.755 112.177C254.352 112.639 254.942 115.552 253.43 116.686C252.252 115.622 252.904 113.483 251.979 112.513C251.477 113.144 251.351 113.53 251.042 114.277C251.383 115.109 251.957 116.08 251.49 116.877C250.619 116.948 250.949 117.008 250.154 116.606C249.621 115.91 249.74 114.692 249.494 113.614L249.158 113.42C247.817 114.382 248.561 116.826 246.091 116.805C243.577 114.682 248.463 110.183 250.726 109.842C252.403 110.363 252.159 110.143 253.24 108.923Z"/><path fill="#DEDBDF" fill-opacity="0.98431373" transform="scale(3.73723 3.73913)" d="M228.151 110.968C230.051 111.075 236.141 111.137 237.653 110.69C234.509 112.813 234.062 116.312 238.138 116.819C238.307 116.839 238.475 116.856 238.644 116.869C236.539 117.707 235.286 115.832 234.437 114.286C233.702 115.267 229.041 119.542 228.282 119.785C224.68 120.936 221.356 111.005 227.935 110.865C226.019 111.43 224.278 112.64 224.845 114.921C226.197 116.404 228.969 115.411 229.601 117.02C228.551 119.222 226.468 117.444 225.541 117.625C225.96 119.124 227.058 119.706 228.44 119.05C231.233 117.724 231.954 112.363 228.566 111.108C228.429 111.058 228.29 111.011 228.151 110.968Z"/><path fill="#060708" transform="scale(3.73723 3.73913)" d="M232.391 110.806C233.1 110.938 233.023 110.818 233.503 111.242C233.481 112.441 232.996 114.199 232.885 115.94L232.496 116.089L232.18 115.894C231.925 114.602 232.199 112.148 232.391 110.806Z"/><path fill="#060708" transform="scale(3.73723 3.73913)" d="M237.653 110.69C238.111 110.725 241.467 110.916 241.667 111.076C243.016 112.152 244.883 115.056 243.856 116.745L243.264 116.941C242.253 116.207 242.393 115.39 241.544 115.628C240.403 115.947 239.824 116.57 238.644 116.869C238.475 116.856 238.307 116.839 238.138 116.819C234.062 116.312 234.509 112.813 237.653 110.69Z"/><path fill="#A2E010" transform="scale(3.73723 3.73913)" d="M19.8433 70.1222C22.096 70.1937 27.0751 74.7778 27.8597 77.0122C28.1604 77.8684 28.0501 78.1513 27.7172 78.9568C27.4124 78.9063 27.1117 78.8336 26.8175 78.7392C24.6051 78.017 20.7809 74.6026 19.8182 72.3853C19.3273 71.2547 19.4959 71.1275 19.8433 70.1222Z"/><path fill="#060708" transform="scale(3.73723 3.73913)" d="M227.935 110.865L228.151 110.968C228.29 111.011 228.429 111.058 228.566 111.108C231.954 112.363 231.233 117.724 228.44 119.05C227.058 119.706 225.96 119.124 225.541 117.625C226.468 117.444 228.551 119.222 229.601 117.02C228.969 115.411 226.197 116.404 224.845 114.921C224.278 112.64 226.019 111.43 227.935 110.865Z"/><path fill="#A2E010" transform="scale(3.73723 3.73913)" d="M50.4924 70.4414C50.9991 70.4787 51.1688 70.5844 51.6258 70.7824C52.7945 73.1197 47.4105 77.9761 45.691 79.5037C41.9955 79.472 45.9633 73.9101 47.4359 73.1601C47.8185 72.9652 49.9818 70.8889 50.4924 70.4414Z"/><path fill="#A2E010" transform="scale(3.73723 3.73913)" d="M34.997 64.4135C35.9473 64.4524 36.4064 64.509 37.0025 65.1222C37.6278 67.2707 37.301 73.0909 37.0483 75.4371C33.5297 75.0816 34.0874 66.5337 34.997 64.4135Z"/><path fill="#060708" transform="scale(3.73723 3.73913)" d="M193.29 110.878C194.584 110.99 195.525 110.921 196.399 112.012C197.477 113.356 197.726 114.728 196.706 116.188L196.192 116.462C194.981 116.563 193.88 116.779 192.889 115.876C191.478 114.59 191.862 112.397 193.088 111.088C193.154 111.017 193.222 110.948 193.29 110.878Z"/><path fill="#B2F03D" transform="scale(3.73723 3.73913)" d="M16.9956 77.954C19.2013 78.2487 23.4128 79.5217 24.9166 81.2577C25.3592 81.7686 25.0226 82.4934 24.8792 83.0794C22.5975 82.4535 15.9774 81.4272 16.9956 77.954Z"/><path fill="#A2E010" transform="scale(3.73723 3.73913)" d="M53.0355 78.503C54.0813 78.5243 53.8882 78.376 54.6853 78.8649L54.6806 79.4543C53.637 81.2624 50.5738 82.401 48.6985 83.1562C47.7248 83.2108 47.4604 83.2391 46.8351 82.7322C46.3744 80.0907 50.9987 79.1975 53.0355 78.503Z"/><path fill="#A2E010" transform="scale(3.73723 3.73913)" d="M27.5666 67.5641C30.2208 68.1129 32.5584 73.4537 31.7038 76.0598C29.1758 75.7961 27.2752 69.601 27.5666 67.5641Z"/><path fill="#A2E010" transform="scale(3.73723 3.73913)" d="M43.1788 67.596L43.6613 67.853C44.9983 69.6304 42.4374 75.0388 41.0832 76.3667C38.4499 74.7476 41.6599 69.0367 43.1788 67.596Z"/><path fill="#060708" transform="scale(3.73723 3.73913)" d="M182.665 110.842C183.63 111.513 183.879 111.673 184.524 112.694L184.549 113.186C183.177 113.975 181.572 113.19 180.732 114.676C180.963 115.536 180.783 115.243 181.494 115.829C182.813 116.102 183.332 115.047 184.291 115.472L184.337 115.882C180.556 118.664 179.22 114.789 179.818 111.55C180.988 110.975 181.386 110.965 182.665 110.842Z"/><path fill="#DEDBDF" fill-opacity="0.011764706" transform="scale(3.73723 3.73913)" d="M225.173 76.7494C225.265 76.9916 225.342 77.7218 225.382 78.0158C225.474 77.0181 225.39 75.2435 225.857 74.5871L226.123 74.965C226.362 78.4006 226.111 84.3494 226.001 87.9501L225.581 87.8517C225.151 86.4176 225.768 81.7207 225.311 79.7183L224.842 79.9958L224.836 79.4954C224.879 78.3676 224.967 77.8442 225.173 76.7494Z"/><path fill="#060708" transform="scale(3.73723 3.73913)" d="M205.333 116.345C205.215 115.206 205.03 110.451 205.514 109.688L205.966 109.732C206.09 111.161 206.414 115.144 205.749 116.281L205.333 116.345Z"/><path fill="#060708" transform="scale(3.73723 3.73913)" d="M213.825 112.683C213.098 112.215 212.738 111.965 212.088 111.401L212.143 110.998L212.744 110.796C214.484 112.025 215.466 113.937 214.817 116.076L214.157 116.399C213.997 115.539 213.899 113.632 213.825 112.683Z"/><path fill="#060708" transform="scale(3.73723 3.73913)" d="M208.24 116.714C207.445 115.256 207.147 112.205 208.3 110.881C208.553 112.01 208.888 115.83 208.24 116.714Z"/><path fill="#060708" fill-opacity="0.89411765" transform="scale(3.73723 3.73913)" d="M224.203 79.5619C224.115 78.4296 223.949 76.537 224.452 75.5182C225.005 75.7859 224.896 75.9591 225.173 76.7494C224.967 77.8442 224.879 78.3676 224.836 79.4954L224.203 79.5619Z"/><path fill="#060708" fill-opacity="0.38039216" transform="scale(3.73723 3.73913)" d="M32.8666 95.176L33.3136 95.2482L33.4127 95.5654C32.5777 96.2599 32.3448 96.5046 31.6745 97.36L31.2553 97.3737C31.1551 96.4279 32.1515 95.6215 32.8666 95.176Z"/><path fill="#060708" fill-opacity="0.13725491" transform="scale(3.73723 3.73913)" d="M80.8101 92.3785C81.4337 92.0917 82.4301 92.1768 83.1201 92.2091L83.4075 92.595C82.9757 92.8212 81.2647 92.8333 80.8101 92.3785Z"/><path fill="#060708" fill-opacity="0.22352941" transform="scale(3.73723 3.73913)" d="M224.836 79.4954L224.842 79.9958C224.794 80.6058 224.813 81.3192 224.464 81.789C224.09 81.1677 224.192 80.3077 224.203 79.5619L224.836 79.4954Z"/><path fill="#060708" fill-opacity="0.098039217" transform="scale(3.73723 3.73913)" d="M173.548 78.1426C173.958 78.8939 173.832 79.7485 173.633 80.5308L173.506 80.4111C173.218 79.8335 173.455 78.8271 173.548 78.1426Z"/></svg>